<?xml version="1.0" encoding="UTF-8"?>
<svg id="_Слой_2" data-name="Слой 2" xmlns="http://www.w3.org/2000/svg" viewBox="0 0 254.86 172.83">
  <defs>
    <style>
      .cls-1 {
        fill: #832c05;
      }

      .cls-1, .cls-2, .cls-3, .cls-4, .cls-5, .cls-6, .cls-7, .cls-8, .cls-9, .cls-10, .cls-11 {
        stroke-width: 0px;
      }

      .cls-1, .cls-2, .cls-3, .cls-4, .cls-5, .cls-6, .cls-7, .cls-8, .cls-11 {
        fill-rule: evenodd;
      }

      .cls-2 {
        fill: #b2b2b2;
      }

      .cls-3 {
        fill: #dadada;
      }

      .cls-4, .cls-10 {
        fill: #d84f0d;
      }

      .cls-5 {
        fill: #fff;
      }

      .cls-6 {
        fill: #ef7d00;
      }

      .cls-7 {
        fill: #9f3709;
      }

      .cls-8 {
        fill: #ba440b;
      }

      .cls-9 {
        fill: #1d1d1b;
      }
    </style>
  </defs>
  <g id="_Слой_1-2" data-name="Слой 1">
    <path class="cls-9" d="m206.27,132.05h4.34v18.75h-4.34v-18.75Zm-10.93,19.07c-1.48,0-2.92-.2-4.3-.6-1.38-.4-2.5-.92-3.33-1.57l1.47-3.27c.8.59,1.76,1.06,2.87,1.42,1.11.36,2.21.54,3.32.54,1.23,0,2.14-.18,2.73-.55.59-.37.88-.85.88-1.46,0-.45-.17-.82-.52-1.11-.35-.3-.8-.53-1.34-.71-.54-.18-1.28-.38-2.21-.59-1.43-.34-2.6-.68-3.51-1.02-.91-.34-1.69-.88-2.34-1.63-.65-.75-.98-1.75-.98-3,0-1.09.3-2.08.88-2.96.59-.88,1.48-1.58,2.67-2.1,1.19-.52,2.64-.78,4.35-.78,1.2,0,2.37.14,3.51.43,1.14.29,2.14.7,3,1.23l-1.34,3.3c-1.73-.98-3.46-1.47-5.2-1.47-1.21,0-2.11.2-2.69.59-.58.39-.87.91-.87,1.55s.34,1.12,1,1.43c.67.31,1.69.62,3.07.92,1.43.34,2.6.68,3.51,1.02.91.34,1.69.88,2.34,1.61.65.73.98,1.72.98,2.97,0,1.07-.3,2.05-.9,2.93-.6.88-1.5,1.58-2.69,2.1-1.2.52-2.65.78-4.37.78Zm-13.98-12.27c0-1.05-.34-1.86-1.02-2.42-.68-.56-1.67-.84-2.97-.84h-3.54v6.54h3.54c1.3,0,2.29-.29,2.97-.86.68-.57,1.02-1.38,1.02-2.41Zm.08,11.95l-3.62-5.22h-3.99v5.22h-4.34v-18.75h8.12c1.66,0,3.1.28,4.33.83,1.22.55,2.16,1.34,2.83,2.36.66,1.02.99,2.22.99,3.62s-.33,2.59-1,3.6c-.67,1.01-1.62,1.78-2.85,2.32l4.21,6.03h-4.66Zm-15.4-3.48v3.48h-14.52v-18.75h14.17v3.48h-9.86v4.07h8.71v3.38h-8.71v4.34h10.21Zm-16.07-15.27l-8.12,18.75h-4.29l-8.09-18.75h4.69l5.71,13.39,5.79-13.39h4.31Zm-22.37,0v18.75h-3.56l-9.35-11.39v11.39h-4.29v-18.75h3.59l9.32,11.38v-11.38h4.29Zm-30.73,15.38c1.11,0,2.11-.25,3-.76.89-.51,1.59-1.22,2.1-2.13.51-.91.76-1.95.76-3.11s-.25-2.2-.76-3.11c-.51-.91-1.21-1.62-2.1-2.13-.89-.51-1.89-.76-3-.76s-2.11.25-3,.76c-.89.51-1.59,1.22-2.1,2.13-.51.91-.76,1.95-.76,3.11s.25,2.2.76,3.11c.51.91,1.21,1.62,2.1,2.13.89.51,1.89.76,3,.76Zm0,3.7c-1.95,0-3.7-.42-5.26-1.26-1.56-.84-2.79-2-3.67-3.47-.88-1.47-1.33-3.13-1.33-4.97s.44-3.5,1.33-4.97c.88-1.47,2.11-2.63,3.67-3.47,1.56-.84,3.32-1.26,5.26-1.26s3.7.42,5.25,1.26c1.55.84,2.78,2,3.67,3.47.89,1.47,1.34,3.13,1.34,4.97s-.45,3.5-1.34,4.97c-.89,1.47-2.12,2.63-3.67,3.47-1.55.84-3.3,1.26-5.25,1.26Zm-19.34,0c-1.91,0-3.64-.42-5.18-1.25-1.55-.83-2.76-1.98-3.64-3.46-.88-1.47-1.33-3.14-1.33-5s.44-3.52,1.33-5c.88-1.47,2.1-2.63,3.64-3.46,1.54-.83,3.28-1.25,5.21-1.25,1.63,0,3.09.29,4.41.86,1.31.57,2.41,1.39,3.31,2.46l-2.79,2.57c-1.27-1.46-2.84-2.2-4.71-2.2-1.16,0-2.2.25-3.11.76-.91.51-1.62,1.22-2.13,2.13-.51.91-.76,1.95-.76,3.11s.25,2.2.76,3.11c.51.91,1.22,1.62,2.13,2.13.91.51,1.95.76,3.11.76,1.88,0,3.45-.74,4.71-2.22l2.79,2.57c-.89,1.09-2,1.92-3.32,2.49-1.32.57-2.79.86-4.42.86Zm-28.29-9.03c1.3,0,2.29-.28,2.97-.84.68-.56,1.02-1.36,1.02-2.4s-.34-1.86-1.02-2.42c-.68-.56-1.67-.84-2.97-.84h-3.54v6.51h3.54Zm.24-10.05c1.66,0,3.1.28,4.33.83,1.22.55,2.16,1.34,2.83,2.36.66,1.02.99,2.22.99,3.62s-.33,2.58-.99,3.6c-.66,1.03-1.6,1.81-2.83,2.36-1.22.54-2.67.82-4.33.82h-3.78v5.17h-4.34v-18.75h8.12Zm-21.64,15.38c1.11,0,2.11-.25,3-.76.89-.51,1.59-1.22,2.1-2.13.51-.91.76-1.95.76-3.11s-.25-2.2-.76-3.11c-.51-.91-1.21-1.62-2.1-2.13-.89-.51-1.89-.76-3-.76s-2.11.25-3,.76c-.89.51-1.59,1.22-2.1,2.13-.51.91-.76,1.95-.76,3.11s.25,2.2.76,3.11c.51.91,1.21,1.62,2.1,2.13.89.51,1.89.76,3,.76Zm0,3.7c-1.95,0-3.7-.42-5.26-1.26-1.56-.84-2.79-2-3.67-3.47-.88-1.47-1.33-3.13-1.33-4.97s.44-3.5,1.33-4.97c.88-1.47,2.11-2.63,3.67-3.47,1.56-.84,3.32-1.26,5.26-1.26s3.7.42,5.25,1.26c1.55.84,2.78,2,3.67,3.47.89,1.47,1.34,3.13,1.34,4.97s-.45,3.5-1.34,4.97c-.89,1.47-2.12,2.63-3.67,3.47-1.55.84-3.3,1.26-5.25,1.26Zm-21.48-15.54H.35v-3.54h16.34v3.54h-6v15.22h-4.34v-15.22Z"/>
    <path class="cls-10" d="m254.86,132.05v18.75h-3.56l-9.35-11.39v11.39h-4.29v-18.75h3.59l9.32,11.38v-11.38h4.29Zm-30.73,15.38c1.11,0,2.11-.25,3-.76.89-.51,1.59-1.22,2.1-2.13.51-.91.76-1.95.76-3.11s-.25-2.2-.76-3.11c-.51-.91-1.21-1.62-2.1-2.13-.89-.51-1.89-.76-3-.76s-2.11.25-3,.76c-.89.51-1.59,1.22-2.1,2.13-.51.91-.76,1.95-.76,3.11s.25,2.2.76,3.11c.51.91,1.21,1.62,2.1,2.13.89.51,1.89.76,3,.76Zm0,3.7c-1.95,0-3.7-.42-5.26-1.26-1.56-.84-2.79-2-3.67-3.47-.88-1.47-1.33-3.13-1.33-4.97s.44-3.5,1.33-4.97c.88-1.47,2.11-2.63,3.67-3.47,1.56-.84,3.32-1.26,5.26-1.26s3.7.42,5.25,1.26c1.55.84,2.78,2,3.67,3.47.89,1.47,1.34,3.13,1.34,4.97s-.45,3.5-1.34,4.97c-.89,1.47-2.12,2.63-3.67,3.47-1.55.84-3.3,1.26-5.25,1.26Z"/>
    <path class="cls-9" d="m252.8,168.35l-1.83-4.1-1.83,4.1h3.66Zm.29.65h-4.25l-.92,2.04h-.84l3.49-7.63h.8l3.49,7.63h-.85l-.92-2.04Zm-4.83-4.89h-4.06v6.93s-.79,0-.79,0v-7.63h4.85v.7Zm-7.42-.7v7.63h-.8v-3.52h-4.77v3.52h-.81v-7.63h.81v3.4h4.77v-3.4h.8Zm-15.36,0h.8v6.32l4.88-6.32h.73v7.63h-.8v-6.31l-4.88,6.31h-.73v-7.63Zm-1.42.7h-2.68v6.93h-.8v-6.93h-2.68v-.7h6.16v.7Zm-6.78,6.23v.7h-5.39v-7.63h5.23v.7h-4.42v2.71h3.95v.69h-3.95v2.83h4.59Zm-10.26-2.8h-1.74v3.5h-.78v-7.63h.78v3.42h1.74l2.58-3.42h.87l-2.83,3.71,3,3.92h-.93l-2.69-3.5Zm-7.32.38c.76,0,1.33-.16,1.73-.5.4-.33.6-.8.6-1.4s-.2-1.09-.6-1.42c-.4-.33-.98-.5-1.73-.5h-2.03v3.81h2.03Zm.02-4.51c.97,0,1.74.23,2.29.7.55.46.83,1.1.83,1.92s-.28,1.45-.83,1.91c-.55.46-1.32.69-2.29.69h-2.05v2.41h-.81v-7.63h2.86Zm-6.38,4.94l-1.83-4.1-1.83,4.1h3.66Zm.29.65h-4.25l-.92,2.04h-.84l3.49-7.63h.8l3.49,7.63h-.85l-.92-2.04Zm-7.45-5.59v7.63h-.77v-6.1l-3,5.13h-.38l-3-5.1v6.07h-.77v-7.63h.66l3.31,5.66,3.28-5.66h.67Zm-19.76,0h.8v6.32l4.88-6.32h.73v7.63h-.8v-6.31l-4.88,6.31h-.73v-7.63Zm-7.67,4.13h-1.58v3.5h-.78v-3.5h-1.59l-2.33,3.5h-.94l2.62-3.93-2.42-3.7h.87l2.19,3.42h1.6v-3.42h.78v3.42h1.58l2.2-3.42h.87l-2.42,3.7,2.62,3.93h-.94l-2.33-3.5Zm-9.37.81l-1.83-4.1-1.83,4.1h3.66Zm.29.65h-4.25l-.92,2.04h-.84l3.49-7.63h.8l3.49,7.63h-.85l-.92-2.04Zm-12.21-3.04c-.04,1.16-.13,2.12-.27,2.87-.14.75-.38,1.25-.71,1.51h4.7v-6.23h-3.65l-.07,1.85Zm5.66,4.38v2.41h-.75v-1.71h-6.66v1.71h-.76v-2.41h.39c.5-.03.85-.43,1.05-1.19.2-.77.32-1.85.36-3.26l.09-2.47h5.14v6.93h1.14Zm-12.72.04c.6,0,1.15-.14,1.64-.41.49-.27.87-.65,1.14-1.13.28-.48.41-1.02.41-1.62s-.14-1.14-.41-1.62c-.28-.48-.66-.86-1.14-1.13-.49-.27-1.03-.41-1.64-.41s-1.15.14-1.64.41c-.49.27-.88.65-1.16,1.13-.28.48-.42,1.02-.42,1.62s.14,1.14.42,1.62c.28.48.66.86,1.16,1.13.49.27,1.04.41,1.64.41Zm0,.72c-.76,0-1.44-.17-2.05-.51-.61-.34-1.09-.8-1.44-1.39-.35-.59-.52-1.25-.52-1.98s.17-1.39.52-1.98c.35-.59.82-1.05,1.44-1.39.61-.34,1.3-.51,2.05-.51s1.44.17,2.04.5c.61.33,1.08.8,1.43,1.39.35.59.52,1.25.52,1.99s-.17,1.4-.52,1.99c-.35.59-.83,1.06-1.43,1.39-.61.33-1.29.5-2.04.5Zm-8.25-3.18c.76,0,1.33-.16,1.73-.5.4-.33.6-.8.6-1.4s-.2-1.09-.6-1.42c-.4-.33-.98-.5-1.73-.5h-2.03v3.81h2.03Zm.02-4.51c.97,0,1.74.23,2.29.7.55.46.83,1.1.83,1.92s-.28,1.45-.83,1.91c-.55.46-1.32.69-2.29.69h-2.05v2.41h-.81v-7.63h2.86Zm-5.43,0v7.63h-.8v-6.93h-4.83v6.93h-.8v-7.63h6.42Zm-17.01,2.68c0,.62.18,1.11.55,1.44.37.34.9.51,1.61.51h2.21v-3.93h-2.14c-.71,0-1.26.17-1.65.51-.39.34-.58.83-.58,1.48Zm5.17-2.68v7.63h-.8v-2.31h-2.28c-.1,0-.25,0-.44-.02l-1.6,2.33h-.86l1.73-2.47c-.56-.17-.99-.46-1.29-.89-.3-.42-.45-.95-.45-1.56,0-.86.27-1.52.81-1.99.54-.47,1.27-.71,2.2-.71h2.96Zm-14.39,0h.8v6.32l4.88-6.32h.73v7.63h-.8v-6.31l-4.88,6.31h-.73v-7.63Zm-1.6,6.93v2.49h-.75v-1.79h-6.66v-7.63h.8v6.93h4.61v-6.93h.8v6.93h1.21Zm-10.93-1.99l-1.83-4.1-1.83,4.1h3.66Zm.29.65h-4.25l-.92,2.04h-.84l3.49-7.63h.8l3.49,7.63h-.85l-.92-2.04Zm-8.5-1.95c.5.12.9.35,1.18.68.29.33.43.72.43,1.18s-.14.83-.41,1.17c-.28.33-.64.59-1.1.77-.46.18-.95.27-1.49.27-.51,0-1.01-.08-1.5-.25-.49-.16-.93-.41-1.32-.74l.29-.58c.33.28.72.5,1.14.65.43.15.86.22,1.3.22s.8-.07,1.14-.2c.35-.13.63-.32.83-.56.21-.24.31-.53.31-.87,0-.44-.17-.78-.52-1.02-.35-.24-.84-.36-1.47-.36h-1.63v-.65h1.59c.54,0,.96-.11,1.26-.34.3-.23.45-.55.45-.95,0-.45-.19-.8-.58-1.06-.39-.26-.87-.39-1.45-.39-.36,0-.73.05-1.1.16-.37.1-.72.26-1.06.47l-.27-.67c.76-.45,1.57-.68,2.45-.68.52,0,.99.08,1.42.25.43.17.77.41,1.02.72.25.31.38.68.38,1.1s-.11.76-.34,1.05c-.23.29-.54.5-.95.63Zm-12.29-3.64h.8v6.32l4.88-6.32h.73v7.63h-.8v-6.31l-4.88,6.31h-.73v-7.63Zm-1.42.7h-2.68v6.93h-.8v-6.93h-2.68v-.7h6.16v.7Zm-8.13,4.24l-1.83-4.1-1.83,4.1h3.66Zm.29.65h-4.25l-.92,2.04h-.84l3.49-7.63h.8l3.49,7.63h-.85l-.92-2.04Zm-7.45-5.59v7.63h-.77v-6.1l-3,5.13h-.38l-3-5.1v6.07h-.77v-7.63h.67l3.31,5.66,3.28-5.66h.67Zm-13.85,6.98c.6,0,1.15-.14,1.64-.41.49-.27.87-.65,1.14-1.13.28-.48.41-1.02.41-1.62s-.14-1.14-.41-1.62c-.28-.48-.66-.86-1.14-1.13-.49-.27-1.03-.41-1.64-.41s-1.15.14-1.64.41c-.49.27-.88.65-1.16,1.13-.28.48-.42,1.02-.42,1.62s.14,1.14.42,1.62c.28.48.67.86,1.16,1.13.49.27,1.04.41,1.64.41Zm0,.72c-.76,0-1.44-.17-2.05-.51-.61-.34-1.09-.8-1.44-1.39-.35-.59-.52-1.25-.52-1.98s.17-1.39.52-1.98c.35-.59.82-1.05,1.44-1.39.61-.34,1.3-.51,2.05-.51s1.44.17,2.04.5c.61.33,1.08.8,1.43,1.39.35.59.52,1.25.52,1.99s-.17,1.4-.52,1.99c-.35.59-.83,1.06-1.43,1.39-.61.33-1.29.5-2.04.5Zm-4.65-7h-2.68v6.93h-.8v-6.93h-2.68v-.7h6.16v.7Zm-9.67,6.29c1.32,0,1.97-.49,1.97-1.47s-.66-1.44-1.97-1.44h-2.58v2.91h2.58Zm-2.58-3.53h2.33c.59,0,1.04-.12,1.36-.36.32-.24.47-.59.47-1.05s-.16-.81-.47-1.05c-.32-.24-.77-.36-1.36-.36h-2.33v2.81Zm3.73.24c.53.11.93.32,1.21.64.28.32.41.73.41,1.24,0,.66-.23,1.17-.7,1.53-.47.36-1.16.53-2.07.53h-3.38v-7.63h3.17c.81,0,1.45.17,1.91.5.46.33.69.82.69,1.45,0,.43-.11.79-.33,1.08-.22.29-.52.51-.92.66Zm-8.04,1.24l-1.83-4.1-1.83,4.1h3.66Zm.29.65H1.75l-.92,2.04h-.84l3.49-7.63h.8l3.49,7.63h-.85l-.92-2.04Z"/>
    <polygon class="cls-5" points="111.32 96.92 105.56 93.62 102.64 82.7 77.32 67.26 77.32 35.53 86.62 23.67 81.92 10.73 88.12 0 101.29 0 108.44 8.38 129.27 4.99 150.11 8.38 157.26 0 170.43 0 176.62 10.73 171.92 23.67 181.22 35.53 181.22 67.26 155.91 82.7 152.98 93.62 147.22 96.92 147.22 102.34 129.27 109.03 111.32 102.34 111.32 96.92"/>
    <polygon class="cls-11" points="114.3 95.19 108.12 91.65 105.2 80.78 80.3 65.59 80.3 36.56 89.99 24.21 85.19 11.02 89.84 2.98 99.92 2.98 107.26 11.59 129.27 8.01 151.28 11.59 158.63 2.98 168.71 2.98 173.35 11.02 168.56 24.21 178.24 36.56 178.24 65.59 153.34 80.78 150.43 91.65 144.24 95.19 144.24 100.27 129.27 105.86 114.3 100.27 114.3 95.19"/>
    <polygon class="cls-6" points="118.98 97.02 129.27 100.86 139.57 97.02 139.57 92.48 146.41 88.56 149.3 77.76 173.56 62.96 173.56 38.17 163.27 25.05 168.21 11.47 166.01 7.66 160.79 7.66 153.13 16.63 129.27 12.75 105.41 16.63 97.76 7.66 92.54 7.66 90.34 11.47 95.27 25.05 84.98 38.17 84.98 62.96 109.24 77.76 112.13 88.56 118.98 92.48 118.98 97.02"/>
    <polygon class="cls-11" points="129.27 85.85 126.96 85 126 81 121.78 79.02 120.23 73.75 129.27 74.88 138.32 73.75 136.77 79.02 132.54 81 131.58 85 129.27 85.85"/>
    <polygon class="cls-2" points="109.24 77.76 84.98 62.96 91.31 58.93 110.96 70.17 109.24 77.76"/>
    <polygon class="cls-11" points="129.27 87.25 116.45 93.29 116.45 94.59 129.27 94 142.1 94.59 142.1 93.29 129.27 87.25"/>
    <polygon class="cls-5" points="129.27 94 118.98 94.48 118.98 97.02 129.27 100.86 139.57 97.02 139.57 94.48 129.27 94"/>
    <polygon class="cls-5" points="118.61 92.27 129.27 87.25 139.94 92.27 146.41 88.56 149.3 77.76 147.58 70.17 144.18 82.81 138.32 73.75 136.77 79.02 132.54 81 131.58 85 129.27 85.85 126.96 85 126 81 121.78 79.02 120.23 73.75 114.37 82.81 110.96 70.17 109.24 77.76 112.13 88.56 118.61 92.27"/>
    <polygon class="cls-4" points="93.27 57.54 107.09 51.6 115.62 54.02 111.21 66.55 93.27 57.54"/>
    <polygon class="cls-4" points="114.37 82.81 120.23 73.75 121.45 53.27 121.17 52.7 110.96 70.17 114.37 82.81"/>
    <polygon class="cls-8" points="93.27 57.54 107.09 51.6 104.72 43.77 93.35 39.32 93.27 57.54"/>
    <polygon class="cls-7" points="84.98 38.17 84.98 62.96 91.31 58.93 91.84 39.65 84.98 38.17"/>
    <polygon class="cls-7" points="105.41 16.63 129.27 12.75 153.13 16.63 156.27 22.89 129.27 18.45 102.27 22.89 105.41 16.63"/>
    <polygon class="cls-4" points="111.62 34.46 129.27 30.75 146.92 34.46 155.78 27.56 129.27 23.45 102.77 27.56 111.62 34.46"/>
    <polygon class="cls-1" points="97.76 7.66 92.54 7.66 102.27 22.89 105.41 16.63 97.76 7.66"/>
    <polygon class="cls-4" points="92.54 7.66 102.27 22.89 101.86 24.05 95.27 25.05 90.34 11.47 92.54 7.66"/>
    <polygon class="cls-4" points="104.72 43.77 117.19 44.68 129.27 34.3 129.27 33.3 112.05 35.85 104.72 43.77"/>
    <polygon class="cls-1" points="91.56 39.59 84.98 38.17 95.27 25.05 102.79 23.9 102.79 25.17 91.56 39.59"/>
    <polygon class="cls-7" points="111.62 34.46 112.05 35.85 104.72 43.77 92.14 38.85 100.76 27.78 102.77 27.56 111.62 34.46"/>
    <polygon class="cls-3" points="109.24 77.76 110.96 70.17 114.37 82.81 112.13 88.56 109.24 77.76"/>
    <path class="cls-11" d="m114.27,65.23l7.19-11.96-4.26-8.58-12.47-.91,2.37,7.83,8.53,2.42-4.92,8.47c-.15-.02-.31-.03-.47-.03-.77,0-1.49.2-2.12.56l-12.44-6.51.13-13.86c1.13-.78,1.88-2.08,1.88-3.56,0-2.39-1.93-4.32-4.32-4.32s-4.32,1.93-4.32,4.32c0,1.43.7,2.7,1.77,3.49v16.68l15.22,8.51c.44,1.92,2.16,3.36,4.21,3.36,2.39,0,4.32-1.94,4.32-4.32,0-.55-.1-1.07-.29-1.56"/>
    <polygon class="cls-5" points="114.27 47.34 109.42 46.73 110.38 49.78 116.04 51.26 114.27 47.34"/>
    <polygon class="cls-2" points="149.3 77.76 173.57 62.96 167.24 58.93 147.58 70.17 149.3 77.76"/>
    <polygon class="cls-4" points="165.28 57.54 151.45 51.6 142.92 54.02 147.33 66.55 165.28 57.54"/>
    <polygon class="cls-4" points="144.18 82.81 138.32 73.75 137.09 53.27 137.37 52.7 147.58 70.17 144.18 82.81"/>
    <polygon class="cls-8" points="165.28 57.54 151.45 51.6 153.82 43.77 165.2 39.32 165.28 57.54"/>
    <polygon class="cls-7" points="173.56 38.17 173.56 62.96 167.24 58.93 166.71 39.65 173.56 38.17"/>
    <polygon class="cls-1" points="160.79 7.66 166.01 7.66 156.27 22.89 153.13 16.63 160.79 7.66"/>
    <polygon class="cls-4" points="166.01 7.66 156.27 22.89 156.68 24.05 163.27 25.05 168.21 11.47 166.01 7.66"/>
    <polygon class="cls-4" points="153.82 43.77 141.35 44.68 129.27 34.3 129.27 33.3 146.5 35.85 153.82 43.77"/>
    <polygon class="cls-1" points="166.98 39.59 173.56 38.17 163.27 25.05 155.75 23.9 155.75 25.17 166.98 39.59"/>
    <polygon class="cls-7" points="146.92 34.46 146.5 35.85 153.82 43.77 166.41 38.85 157.79 27.78 155.78 27.56 146.92 34.46"/>
    <polygon class="cls-3" points="149.3 77.76 147.58 70.17 144.18 82.81 146.41 88.56 149.3 77.76"/>
    <path class="cls-11" d="m144.27,65.23l-7.19-11.96,4.26-8.58,12.47-.91-2.37,7.83-8.53,2.42,4.92,8.47c.15-.02.31-.03.47-.03.77,0,1.49.2,2.12.56l12.44-6.51-.13-13.86c-1.13-.78-1.88-2.08-1.88-3.56,0-2.39,1.93-4.32,4.32-4.32s4.32,1.93,4.32,4.32c0,1.43-.7,2.7-1.77,3.49v16.68l-15.22,8.51c-.44,1.92-2.16,3.36-4.21,3.36-2.39,0-4.32-1.94-4.32-4.32,0-.55.1-1.07.29-1.56"/>
    <polygon class="cls-5" points="144.28 47.34 149.13 46.73 148.16 49.78 142.5 51.26 144.28 47.34"/>
    <path class="cls-11" d="m114.87,31.66l14.4-2.36,14.4,2.36c.79-.9,1.96-1.47,3.25-1.47,2.39,0,4.32,1.93,4.32,4.32s-1.93,4.32-4.32,4.32c-1.72,0-3.21-1.01-3.9-2.46l-13.75-2.07-13.75,2.07c-.7,1.46-2.18,2.46-3.9,2.46-2.39,0-4.32-1.93-4.32-4.32s1.94-4.32,4.32-4.32c1.3,0,2.46.57,3.25,1.47"/>
    <path class="cls-11" d="m105.99,22.27l23.28-3.82,23.28,3.82c.78-.8,1.87-1.29,3.08-1.29,2.39,0,4.32,1.93,4.32,4.32s-1.93,4.32-4.32,4.32c-1.82,0-3.37-1.12-4.01-2.71l-22.34-3.47-22.34,3.47c-.64,1.59-2.19,2.71-4.01,2.71-2.39,0-4.32-1.93-4.32-4.32s1.93-4.32,4.32-4.32c1.2,0,2.29.49,3.08,1.29"/>
  </g>
</svg>
