<?xml version="1.0" encoding="UTF-8"?>
<svg id="_Слой_2" data-name="Слой 2" xmlns="http://www.w3.org/2000/svg" viewBox="0 0 325.5 78.94">
  <defs>
    <style>
      .cls-1 {
        fill: #832c05;
      }

      .cls-1, .cls-2, .cls-3, .cls-4, .cls-5, .cls-6, .cls-7, .cls-8, .cls-9, .cls-10, .cls-11 {
        stroke-width: 0px;
      }

      .cls-1, .cls-2, .cls-3, .cls-4, .cls-5, .cls-6, .cls-7, .cls-8, .cls-11 {
        fill-rule: evenodd;
      }

      .cls-2 {
        fill: #b2b2b2;
      }

      .cls-3 {
        fill: #dadada;
      }

      .cls-4, .cls-9 {
        fill: #d84f0d;
      }

      .cls-5, .cls-10 {
        fill: #fff;
      }

      .cls-6 {
        fill: #ef7d00;
      }

      .cls-7 {
        fill: #9f3709;
      }

      .cls-8 {
        fill: #ba440b;
      }
    </style>
  </defs>
  <g id="_Слой_1-2" data-name="Слой 1">
    <path class="cls-10" d="m281.5,20.28h3.93v16.98h-3.93v-16.98Zm-9.9,17.27c-1.34,0-2.64-.18-3.89-.55-1.25-.36-2.26-.84-3.02-1.42l1.33-2.96c.73.53,1.59.96,2.6,1.29,1,.32,2.01.49,3.01.49,1.12,0,1.94-.17,2.47-.5.53-.33.8-.77.8-1.32,0-.4-.16-.74-.47-1.01-.32-.27-.72-.48-1.21-.64-.49-.16-1.16-.34-2-.53-1.29-.31-2.35-.62-3.18-.92-.82-.31-1.53-.8-2.12-1.48-.59-.68-.89-1.59-.89-2.72,0-.99.27-1.88.8-2.68.53-.8,1.34-1.43,2.41-1.9,1.08-.47,2.39-.7,3.94-.7,1.08,0,2.14.13,3.18.39,1.03.26,1.94.63,2.72,1.12l-1.21,2.98c-1.57-.89-3.14-1.33-4.71-1.33-1.1,0-1.91.18-2.44.53-.53.36-.79.82-.79,1.41s.3,1.02.91,1.3c.61.28,1.53.56,2.78.84,1.29.31,2.35.61,3.18.92.82.31,1.53.79,2.12,1.46.59.66.89,1.56.89,2.69,0,.97-.27,1.86-.81,2.66-.54.8-1.35,1.44-2.44,1.9-1.08.47-2.4.7-3.95.7Zm-12.66-11.11c0-.95-.31-1.69-.92-2.2-.61-.51-1.51-.76-2.69-.76h-3.2v5.92h3.2c1.18,0,2.08-.26,2.69-.78.61-.52.92-1.25.92-2.18Zm.07,10.82l-3.27-4.73h-3.61v4.73h-3.93v-16.98h7.35c1.5,0,2.81.25,3.92.75,1.11.5,1.96,1.21,2.56,2.13.6.92.9,2.01.9,3.28s-.3,2.35-.91,3.26c-.61.91-1.47,1.61-2.58,2.1l3.81,5.46h-4.22Zm-13.95-3.15v3.15h-13.15v-16.98h12.83v3.15h-8.93v3.69h7.88v3.06h-7.88v3.93h9.24Zm-14.56-13.83l-7.35,16.98h-3.88l-7.33-16.98h4.25l5.17,12.13,5.24-12.13h3.91Zm-20.26,0v16.98h-3.23l-8.47-10.31v10.31h-3.88v-16.98h3.25l8.44,10.31v-10.31h3.88Zm-27.82,13.92c1,0,1.91-.23,2.72-.69.81-.46,1.44-1.1,1.9-1.93.46-.83.69-1.76.69-2.81s-.23-1.99-.69-2.81c-.46-.82-1.1-1.47-1.9-1.93-.81-.46-1.71-.69-2.72-.69s-1.91.23-2.72.69c-.81.46-1.44,1.1-1.9,1.93-.46.83-.69,1.76-.69,2.81s.23,1.99.69,2.81c.46.82,1.1,1.47,1.9,1.93.81.46,1.71.69,2.72.69Zm0,3.35c-1.76,0-3.35-.38-4.77-1.14-1.41-.76-2.52-1.81-3.32-3.14-.8-1.33-1.2-2.83-1.2-4.5s.4-3.17,1.2-4.5c.8-1.33,1.91-2.38,3.32-3.14,1.42-.76,3-1.14,4.77-1.14s3.35.38,4.75,1.14c1.41.76,2.51,1.81,3.32,3.14.81,1.33,1.21,2.83,1.21,4.5s-.4,3.17-1.21,4.5c-.81,1.33-1.92,2.38-3.32,3.14-1.41.76-2.99,1.14-4.75,1.14Zm-17.51,0c-1.73,0-3.3-.38-4.69-1.13-1.4-.75-2.5-1.8-3.3-3.13-.8-1.33-1.2-2.84-1.2-4.52s.4-3.19,1.2-4.52c.8-1.33,1.9-2.38,3.3-3.13,1.4-.75,2.97-1.13,4.72-1.13,1.47,0,2.8.26,3.99.78,1.19.52,2.19,1.26,3,2.23l-2.52,2.33c-1.15-1.33-2.57-1.99-4.27-1.99-1.05,0-1.99.23-2.81.69-.82.46-1.47,1.1-1.93,1.93-.46.83-.69,1.76-.69,2.81s.23,1.99.69,2.81c.46.82,1.1,1.47,1.93,1.93.83.46,1.76.69,2.81.69,1.7,0,3.12-.67,4.27-2.01l2.52,2.33c-.81.99-1.81,1.74-3.01,2.26-1.2.52-2.53.78-4,.78Zm-25.62-8.18c1.18,0,2.08-.25,2.69-.76.61-.51.92-1.23.92-2.17s-.31-1.69-.92-2.2c-.61-.51-1.51-.76-2.69-.76h-3.2v5.89h3.2Zm.22-9.1c1.5,0,2.81.25,3.92.75,1.11.5,1.96,1.21,2.56,2.13.6.92.9,2.01.9,3.28s-.3,2.33-.9,3.26c-.6.93-1.45,1.64-2.56,2.13-1.11.49-2.41.74-3.92.74h-3.42v4.68h-3.93v-16.98h7.35Zm-19.6,13.92c1,0,1.91-.23,2.72-.69.81-.46,1.44-1.1,1.9-1.93.46-.83.69-1.76.69-2.81s-.23-1.99-.69-2.81c-.46-.82-1.1-1.47-1.9-1.93-.81-.46-1.71-.69-2.72-.69s-1.91.23-2.72.69c-.81.46-1.44,1.1-1.9,1.93-.46.83-.69,1.76-.69,2.81s.23,1.99.69,2.81c.46.82,1.1,1.47,1.9,1.93.81.46,1.71.69,2.72.69Zm0,3.35c-1.76,0-3.35-.38-4.77-1.14-1.42-.76-2.52-1.81-3.32-3.14-.8-1.33-1.2-2.83-1.2-4.5s.4-3.17,1.2-4.5c.8-1.33,1.91-2.38,3.32-3.14,1.41-.76,3-1.14,4.77-1.14s3.35.38,4.75,1.14c1.41.76,2.51,1.81,3.32,3.14.81,1.33,1.21,2.83,1.21,4.5s-.4,3.17-1.21,4.5c-.81,1.33-1.92,2.38-3.32,3.14-1.41.76-2.99,1.14-4.75,1.14Zm-19.46-14.07h-5.43v-3.2h14.8v3.2h-5.43v13.78h-3.93v-13.78Z"/>
    <path class="cls-9" d="m325.5,20.28v16.98h-3.23l-8.47-10.31v10.31h-3.88v-16.98h3.25l8.44,10.31v-10.31h3.88Zm-27.82,13.92c1,0,1.91-.23,2.72-.69.81-.46,1.44-1.1,1.9-1.93.46-.83.69-1.76.69-2.81s-.23-1.99-.69-2.81c-.46-.82-1.1-1.47-1.9-1.93-.81-.46-1.71-.69-2.72-.69s-1.91.23-2.72.69c-.81.46-1.44,1.1-1.9,1.93-.46.83-.69,1.76-.69,2.81s.23,1.99.69,2.81c.46.82,1.1,1.47,1.9,1.93.81.46,1.71.69,2.72.69Zm0,3.35c-1.76,0-3.35-.38-4.77-1.14-1.42-.76-2.52-1.81-3.32-3.14-.8-1.33-1.2-2.83-1.2-4.5s.4-3.17,1.2-4.5c.8-1.33,1.91-2.38,3.32-3.14,1.41-.76,3-1.14,4.77-1.14s3.35.38,4.75,1.14c1.41.76,2.51,1.81,3.32,3.14.81,1.33,1.21,2.83,1.21,4.5s-.4,3.17-1.21,4.5c-.81,1.33-1.92,2.38-3.32,3.14-1.41.76-2.99,1.14-4.75,1.14Z"/>
    <path class="cls-10" d="m323.64,53.15l-1.66-3.71-1.66,3.71h3.32Zm.27.59h-3.85l-.83,1.85h-.76l3.16-6.91h.72l3.16,6.91h-.77l-.83-1.85Zm-4.37-4.43h-3.68v6.28s-.71,0-.71,0v-6.91h4.39v.63Zm-6.72-.63v6.91h-.72v-3.19h-4.32v3.19h-.73v-6.91h.73v3.08h4.32v-3.08h.72Zm-13.91,0h.72v5.72l4.42-5.72h.66v6.91h-.72v-5.71l-4.42,5.71h-.66v-6.91Zm-1.28.63h-2.43v6.28h-.72v-6.28h-2.43v-.63h5.58v.63Zm-6.14,5.65v.63h-4.89v-6.91h4.74v.63h-4.01v2.46h3.57v.62h-3.57v2.57h4.15Zm-9.29-2.54h-1.58v3.17h-.71v-6.91h.71v3.1h1.58l2.34-3.1h.79l-2.57,3.36,2.71,3.55h-.84l-2.44-3.17Zm-6.63.35c.68,0,1.21-.15,1.57-.45.36-.3.54-.72.54-1.27s-.18-.99-.54-1.29c-.36-.3-.88-.45-1.57-.45h-1.84v3.45h1.84Zm.02-4.09c.88,0,1.57.21,2.07.63.5.42.75,1,.75,1.74s-.25,1.31-.75,1.73c-.5.42-1.19.63-2.07.63h-1.86v2.18h-.73v-6.91h2.59Zm-5.77,4.47l-1.66-3.71-1.66,3.71h3.32Zm.27.59h-3.85l-.83,1.85h-.76l3.16-6.91h.72l3.16,6.91h-.77l-.83-1.85Zm-6.75-5.06v6.91h-.7v-5.53l-2.71,4.65h-.35l-2.71-4.62v5.5h-.7v-6.91h.6l3,5.12,2.97-5.12h.6Zm-17.89,0h.72v5.72l4.42-5.72h.66v6.91h-.72v-5.71l-4.42,5.71h-.66v-6.91Zm-6.95,3.74h-1.43v3.17h-.71v-3.17h-1.44l-2.11,3.17h-.85l2.37-3.56-2.19-3.35h.79l1.98,3.1h1.45v-3.1h.71v3.1h1.43l1.99-3.1h.79l-2.19,3.35,2.37,3.56h-.85l-2.11-3.17Zm-8.49.73l-1.66-3.71-1.66,3.71h3.32Zm.27.59h-3.85l-.83,1.85h-.76l3.16-6.91h.72l3.16,6.91h-.77l-.83-1.85Zm-11.05-2.75c-.03,1.05-.11,1.92-.24,2.6-.13.68-.34,1.14-.65,1.37h4.25v-5.65h-3.31l-.06,1.68Zm5.12,3.97v2.18h-.68v-1.55h-6.03v1.55h-.69v-2.18h.35c.45-.03.77-.39.95-1.08.18-.69.29-1.68.33-2.96l.08-2.24h4.66v6.28h1.04Zm-11.52.04c.55,0,1.04-.12,1.48-.37.44-.25.79-.59,1.04-1.03s.38-.93.38-1.47-.13-1.03-.38-1.47c-.25-.44-.6-.78-1.04-1.03-.44-.25-.93-.37-1.48-.37s-1.04.12-1.49.37c-.44.25-.79.59-1.05,1.03-.25.44-.38.93-.38,1.47s.13,1.03.38,1.47c.25.44.6.78,1.05,1.03.44.25.94.37,1.49.37Zm0,.65c-.68,0-1.3-.15-1.86-.46-.56-.31-.99-.73-1.3-1.26-.31-.53-.47-1.13-.47-1.8s.16-1.26.47-1.8c.31-.53.75-.95,1.3-1.26.56-.31,1.18-.46,1.86-.46s1.3.15,1.85.45c.55.3.98.72,1.3,1.26.32.54.47,1.14.47,1.8s-.16,1.26-.47,1.8c-.32.54-.75.96-1.3,1.26-.55.3-1.17.45-1.85.45Zm-7.47-2.88c.68,0,1.21-.15,1.57-.45.36-.3.54-.72.54-1.27s-.18-.99-.54-1.29c-.36-.3-.89-.45-1.57-.45h-1.84v3.45h1.84Zm.02-4.09c.88,0,1.57.21,2.07.63.5.42.75,1,.75,1.74s-.25,1.31-.75,1.73c-.5.42-1.19.63-2.07.63h-1.86v2.18h-.73v-6.91h2.59Zm-4.92,0v6.91h-.72v-6.28h-4.37v6.28h-.72v-6.91h5.81Zm-15.41,2.43c0,.57.17,1,.5,1.31.33.31.82.46,1.46.46h2v-3.56h-1.93c-.65,0-1.14.15-1.5.46-.35.31-.53.75-.53,1.34Zm4.68-2.43v6.91h-.72v-2.09h-2.06c-.09,0-.22,0-.39-.02l-1.45,2.11h-.78l1.57-2.24c-.51-.15-.89-.42-1.16-.8-.27-.38-.4-.86-.4-1.42,0-.78.25-1.38.74-1.81.49-.43,1.15-.64,1.99-.64h2.68Zm-13.03,0h.72v5.72l4.42-5.72h.66v6.91h-.72v-5.71l-4.42,5.71h-.66v-6.91Zm-1.45,6.28v2.25h-.68v-1.62h-6.03v-6.91h.72v6.28h4.17v-6.28h.72v6.28h1.1Zm-9.9-1.81l-1.66-3.71-1.66,3.71h3.32Zm.27.59h-3.85l-.83,1.85h-.76l3.16-6.91h.72l3.16,6.91h-.77l-.83-1.85Zm-7.7-1.77c.45.11.81.32,1.07.61.26.3.39.65.39,1.07s-.13.75-.38,1.06c-.25.3-.58.53-1,.7-.41.16-.87.24-1.35.24-.46,0-.91-.07-1.36-.22-.44-.15-.84-.37-1.2-.67l.27-.52c.3.26.65.45,1.04.59.39.13.78.2,1.17.2s.72-.06,1.04-.18c.32-.12.57-.29.76-.51.19-.22.28-.48.28-.78,0-.4-.16-.71-.47-.93-.32-.22-.76-.33-1.33-.33h-1.48v-.59h1.44c.49,0,.87-.1,1.14-.31.27-.21.41-.5.41-.86,0-.41-.17-.73-.52-.96-.35-.23-.79-.35-1.31-.35-.33,0-.66.05-1,.14-.34.1-.65.24-.96.43l-.25-.6c.68-.41,1.42-.61,2.22-.61.47,0,.89.08,1.28.23.39.15.7.37.92.65.23.28.34.62.34,1s-.1.69-.31.95c-.2.27-.49.46-.86.57Zm-11.13-3.3h.72v5.72l4.42-5.72h.66v6.91h-.72v-5.71l-4.42,5.71h-.66v-6.91Zm-1.28.63h-2.43v6.28h-.72v-6.28h-2.43v-.63h5.58v.63Zm-7.36,3.84l-1.66-3.71-1.66,3.71h3.32Zm.27.59h-3.85l-.83,1.85h-.76l3.16-6.91h.72l3.16,6.91h-.77l-.83-1.85Zm-6.75-5.06v6.91h-.7v-5.53l-2.71,4.65h-.35l-2.71-4.62v5.5h-.7v-6.91h.6l3,5.12,2.97-5.12h.6Zm-12.54,6.32c.55,0,1.04-.12,1.48-.37.44-.25.79-.59,1.04-1.03s.38-.93.38-1.47-.13-1.03-.38-1.47c-.25-.44-.6-.78-1.04-1.03-.44-.25-.93-.37-1.48-.37s-1.04.12-1.49.37c-.44.25-.79.59-1.05,1.03-.25.44-.38.93-.38,1.47s.13,1.03.38,1.47c.25.44.6.78,1.05,1.03.44.25.94.37,1.49.37Zm0,.65c-.68,0-1.3-.15-1.86-.46-.56-.31-.99-.73-1.3-1.26-.31-.53-.47-1.13-.47-1.8s.16-1.26.47-1.8c.31-.53.75-.95,1.3-1.26.56-.31,1.18-.46,1.86-.46s1.3.15,1.85.45c.55.3.98.72,1.3,1.26.32.54.47,1.14.47,1.8s-.16,1.26-.47,1.8c-.32.54-.75.96-1.3,1.26-.55.3-1.17.45-1.85.45Zm-4.21-6.34h-2.43v6.28h-.72v-6.28h-2.43v-.63h5.58v.63Zm-8.75,5.69c1.19,0,1.79-.44,1.79-1.33s-.6-1.3-1.79-1.3h-2.34v2.64h2.34Zm-2.34-3.2h2.11c.53,0,.94-.11,1.23-.33.29-.22.43-.53.43-.95s-.14-.73-.43-.95c-.29-.22-.7-.33-1.23-.33h-2.11v2.55Zm3.38.22c.48.1.85.29,1.1.58.25.29.37.66.37,1.12,0,.6-.21,1.06-.64,1.38-.42.32-1.05.48-1.87.48h-3.06v-6.91h2.87c.74,0,1.31.15,1.73.45.41.3.62.74.62,1.31,0,.39-.1.72-.3.98-.2.27-.47.47-.83.6Zm-7.28,1.13l-1.66-3.71-1.66,3.71h3.32Zm.27.59h-3.85l-.83,1.85h-.76l3.16-6.91h.72l3.16,6.91h-.77l-.83-1.85Z"/>
    <polygon class="cls-5" points="24.62 70.17 20.44 67.78 18.33 59.88 0 48.69 0 25.72 6.73 17.14 3.33 7.77 7.82 0 17.35 0 22.53 6.07 37.61 3.61 52.7 6.07 57.87 0 67.41 0 71.89 7.77 68.49 17.14 75.22 25.72 75.22 48.69 56.9 59.88 54.78 67.78 50.61 70.17 50.61 74.09 37.61 78.94 24.62 74.09 24.62 70.17"/>
    <polygon class="cls-11" points="26.77 68.92 22.3 66.35 20.19 58.48 2.16 47.48 2.16 26.47 9.17 17.53 5.7 7.98 9.06 2.16 16.36 2.16 21.67 8.39 37.61 5.8 53.55 8.39 58.87 2.16 66.16 2.16 69.52 7.98 66.05 17.53 73.07 26.47 73.07 47.48 55.04 58.48 52.93 66.35 48.45 68.92 48.45 72.6 37.61 76.64 26.77 72.6 26.77 68.92"/>
    <polygon class="cls-6" points="30.16 70.24 37.61 73.02 45.06 70.24 45.06 66.96 50.02 64.11 52.11 56.3 69.68 45.58 69.68 27.64 62.23 18.14 65.8 8.3 64.21 5.54 60.43 5.54 54.89 12.04 37.61 9.23 20.34 12.04 14.79 5.54 11.02 5.54 9.42 8.3 13 18.14 5.54 27.64 5.54 45.58 23.11 56.3 25.2 64.11 30.16 66.96 30.16 70.24"/>
    <polygon class="cls-11" points="37.61 62.15 35.94 61.54 35.25 58.64 32.18 57.21 31.06 53.4 37.61 54.21 44.16 53.4 43.04 57.21 39.98 58.64 39.28 61.54 37.61 62.15"/>
    <polygon class="cls-2" points="23.11 56.3 5.54 45.58 10.13 42.66 24.35 50.8 23.11 56.3"/>
    <polygon class="cls-11" points="37.61 63.17 28.33 67.54 28.33 68.49 37.61 68.06 46.9 68.49 46.9 67.54 37.61 63.17"/>
    <polygon class="cls-5" points="37.61 68.06 30.16 68.4 30.16 70.24 37.61 73.02 45.06 70.24 45.06 68.4 37.61 68.06"/>
    <polygon class="cls-5" points="29.89 66.8 37.61 63.17 45.33 66.8 50.02 64.11 52.11 56.3 50.87 50.8 48.4 59.96 44.16 53.4 43.04 57.21 39.98 58.64 39.28 61.54 37.61 62.15 35.94 61.54 35.25 58.64 32.18 57.21 31.06 53.4 26.82 59.96 24.35 50.8 23.11 56.3 25.2 64.11 29.89 66.8"/>
    <polygon class="cls-4" points="11.55 41.66 21.55 37.36 27.73 39.11 24.53 48.19 11.55 41.66"/>
    <polygon class="cls-4" points="26.82 59.96 31.06 53.4 31.95 38.57 31.75 38.16 24.35 50.8 26.82 59.96"/>
    <polygon class="cls-8" points="11.55 41.66 21.55 37.36 19.84 31.69 11.6 28.47 11.55 41.66"/>
    <polygon class="cls-7" points="5.54 27.64 5.54 45.58 10.13 42.66 10.51 28.7 5.54 27.64"/>
    <polygon class="cls-7" points="20.34 12.04 37.61 9.23 54.89 12.04 57.16 16.57 37.61 13.35 18.07 16.57 20.34 12.04"/>
    <polygon class="cls-4" points="24.83 24.95 37.61 22.26 50.39 24.95 56.8 19.95 37.61 16.98 18.42 19.95 24.83 24.95"/>
    <polygon class="cls-1" points="14.79 5.54 11.02 5.54 18.07 16.57 20.34 12.04 14.79 5.54"/>
    <polygon class="cls-4" points="11.02 5.54 18.07 16.57 17.76 17.41 13 18.14 9.42 8.3 11.02 5.54"/>
    <polygon class="cls-4" points="19.84 31.69 28.87 32.35 37.61 24.83 37.61 24.11 25.14 25.95 19.84 31.69"/>
    <polygon class="cls-1" points="10.31 28.66 5.54 27.64 13 18.14 18.44 17.31 18.44 18.22 10.31 28.66"/>
    <polygon class="cls-7" points="24.83 24.95 25.14 25.95 19.84 31.69 10.73 28.12 16.97 20.11 18.42 19.95 24.83 24.95"/>
    <polygon class="cls-3" points="23.11 56.3 24.35 50.8 26.82 59.96 25.2 64.11 23.11 56.3"/>
    <path class="cls-11" d="m26.75,47.23l5.2-8.66-3.08-6.22-9.03-.66,1.72,5.67,6.18,1.75-3.56,6.13c-.11-.01-.23-.02-.34-.02-.56,0-1.08.15-1.54.4l-9.01-4.71.1-10.04c.82-.56,1.36-1.51,1.36-2.58,0-1.73-1.4-3.13-3.13-3.13s-3.13,1.4-3.13,3.13c0,1.04.5,1.96,1.28,2.53v12.08l11.02,6.16c.32,1.39,1.56,2.43,3.05,2.43,1.73,0,3.13-1.4,3.13-3.13,0-.4-.07-.78-.21-1.13"/>
    <polygon class="cls-5" points="26.75 34.28 23.24 33.83 23.94 36.04 28.03 37.11 26.75 34.28"/>
    <polygon class="cls-2" points="52.11 56.3 69.68 45.58 65.1 42.66 50.87 50.8 52.11 56.3"/>
    <polygon class="cls-4" points="63.68 41.66 53.67 37.36 47.49 39.11 50.69 48.19 63.68 41.66"/>
    <polygon class="cls-4" points="48.4 59.96 44.16 53.4 43.27 38.57 43.47 38.16 50.87 50.8 48.4 59.96"/>
    <polygon class="cls-8" points="63.68 41.66 53.67 37.36 55.39 31.69 63.62 28.47 63.68 41.66"/>
    <polygon class="cls-7" points="69.68 27.64 69.68 45.58 65.1 42.66 64.71 28.7 69.68 27.64"/>
    <polygon class="cls-1" points="60.43 5.54 64.21 5.54 57.16 16.57 54.89 12.04 60.43 5.54"/>
    <polygon class="cls-4" points="64.21 5.54 57.16 16.57 57.46 17.41 62.23 18.14 65.8 8.3 64.21 5.54"/>
    <polygon class="cls-4" points="55.39 31.69 46.36 32.35 37.61 24.83 37.61 24.11 50.08 25.95 55.39 31.69"/>
    <polygon class="cls-1" points="64.91 28.66 69.68 27.64 62.23 18.14 56.78 17.31 56.78 18.22 64.91 28.66"/>
    <polygon class="cls-7" points="50.39 24.95 50.08 25.95 55.39 31.69 64.5 28.12 58.26 20.11 56.8 19.95 50.39 24.95"/>
    <polygon class="cls-3" points="52.11 56.3 50.87 50.8 48.4 59.96 50.02 64.11 52.11 56.3"/>
    <path class="cls-11" d="m48.47,47.23l-5.2-8.66,3.09-6.22,9.03-.66-1.72,5.67-6.18,1.75,3.56,6.13c.11-.01.23-.02.34-.02.56,0,1.08.15,1.54.4l9.01-4.71-.1-10.04c-.82-.56-1.36-1.51-1.36-2.58,0-1.73,1.4-3.13,3.13-3.13s3.13,1.4,3.13,3.13c0,1.04-.5,1.96-1.28,2.53v12.08l-11.02,6.16c-.32,1.39-1.56,2.43-3.05,2.43-1.73,0-3.13-1.4-3.13-3.13,0-.4.07-.78.21-1.13"/>
    <polygon class="cls-5" points="48.47 34.28 51.99 33.83 51.29 36.04 47.19 37.11 48.47 34.28"/>
    <path class="cls-11" d="m27.19,22.92l10.42-1.71,10.42,1.71c.57-.65,1.42-1.07,2.35-1.07,1.73,0,3.13,1.4,3.13,3.13s-1.4,3.13-3.13,3.13c-1.25,0-2.32-.73-2.83-1.78l-9.95-1.5-9.95,1.5c-.5,1.05-1.58,1.78-2.82,1.78-1.73,0-3.13-1.4-3.13-3.13s1.4-3.13,3.13-3.13c.94,0,1.78.41,2.35,1.07"/>
    <path class="cls-11" d="m20.76,16.12l16.85-2.77,16.85,2.77c.57-.58,1.36-.93,2.23-.93,1.73,0,3.13,1.4,3.13,3.13s-1.4,3.13-3.13,3.13c-1.32,0-2.44-.81-2.91-1.96l-16.18-2.51-16.18,2.51c-.46,1.15-1.59,1.96-2.91,1.96-1.73,0-3.13-1.4-3.13-3.13s1.4-3.13,3.13-3.13c.87,0,1.66.36,2.23.93"/>
  </g>
</svg>