<?xml version="1.0" encoding="UTF-8"?>
<svg id="_Слой_2" data-name="Слой 2" xmlns="http://www.w3.org/2000/svg" viewBox="0 0 122.09 128.12">
  <defs>
    <style>
      .cls-1 {
        fill: #832c05;
      }

      .cls-1, .cls-2, .cls-3, .cls-4, .cls-5, .cls-6, .cls-7, .cls-8, .cls-9 {
        fill-rule: evenodd;
        stroke-width: 0px;
      }

      .cls-2 {
        fill: #b2b2b2;
      }

      .cls-3 {
        fill: #dadada;
      }

      .cls-4 {
        fill: #d84f0d;
      }

      .cls-5 {
        fill: #fff;
      }

      .cls-6 {
        fill: #ef7d00;
      }

      .cls-7 {
        fill: #9f3709;
      }

      .cls-8 {
        fill: #ba440b;
      }
    </style>
  </defs>
  <g id="_Слой_1-2" data-name="Слой 1">
    <polygon class="cls-5" points="39.95 113.89 33.18 110 29.75 97.18 0 79.03 0 41.75 10.93 27.81 5.4 12.61 12.69 0 28.16 0 36.56 9.85 61.04 5.86 85.53 9.85 93.93 0 109.4 0 116.68 12.61 111.16 27.81 122.09 41.75 122.09 79.03 92.34 97.18 88.91 110 82.14 113.89 82.14 120.26 61.04 128.12 39.95 120.26 39.95 113.89"/>
    <polygon class="cls-9" points="43.45 111.86 36.19 107.69 32.76 94.92 3.5 77.07 3.5 42.96 14.88 28.45 9.25 12.95 14.71 3.5 26.55 3.5 35.18 13.62 61.04 9.41 86.91 13.62 95.54 3.5 107.38 3.5 112.84 12.95 107.21 28.45 118.59 42.96 118.59 77.07 89.32 94.92 85.9 107.69 78.64 111.86 78.64 117.83 61.04 124.39 43.45 117.83 43.45 111.86"/>
    <polygon class="cls-6" points="48.95 114.01 61.04 118.52 73.14 114.01 73.14 108.67 81.18 104.06 84.58 91.37 113.09 73.98 113.09 44.86 101 29.44 106.8 13.48 104.21 9 98.08 9 89.08 19.54 61.04 14.98 33.01 19.54 24.01 9 17.88 9 15.29 13.48 21.09 29.44 9 44.86 9 73.98 37.51 91.37 40.91 104.06 48.95 108.67 48.95 114.01"/>
    <polygon class="cls-9" points="61.04 100.87 58.33 99.88 57.2 95.18 52.24 92.86 50.42 86.66 61.04 87.99 71.67 86.66 69.85 92.86 64.88 95.18 63.76 99.88 61.04 100.87"/>
    <polygon class="cls-2" points="37.51 91.37 9 73.98 16.43 69.24 39.53 82.46 37.51 91.37"/>
    <polygon class="cls-9" points="61.04 102.52 45.97 109.62 45.97 111.15 61.04 110.46 76.11 111.15 76.11 109.62 61.04 102.52"/>
    <polygon class="cls-5" points="61.04 110.46 48.95 111.02 48.95 114.01 61.04 118.52 73.14 114.01 73.14 111.02 61.04 110.46"/>
    <polygon class="cls-5" points="48.51 108.42 61.04 102.52 73.58 108.42 81.18 104.06 84.58 91.37 82.56 82.46 78.56 97.31 71.67 86.66 69.85 92.86 64.88 95.18 63.76 99.88 61.04 100.88 58.33 99.88 57.2 95.18 52.24 92.86 50.42 86.66 43.53 97.31 39.53 82.46 37.51 91.37 40.91 104.06 48.51 108.42"/>
    <polygon class="cls-4" points="18.74 67.62 34.98 60.64 45.01 63.48 39.82 78.21 18.74 67.62"/>
    <polygon class="cls-4" points="43.53 97.31 50.42 86.66 51.86 62.59 51.53 61.93 39.53 82.46 43.53 97.31"/>
    <polygon class="cls-8" points="18.74 67.62 34.98 60.64 32.19 51.44 18.83 46.2 18.74 67.62"/>
    <polygon class="cls-7" points="9 44.86 9 73.98 16.43 69.24 17.06 46.59 9 44.86"/>
    <polygon class="cls-7" points="33.01 19.54 61.04 14.98 89.08 19.54 92.77 26.9 61.04 21.68 29.32 26.9 33.01 19.54"/>
    <polygon class="cls-4" points="40.3 40.5 61.04 36.14 81.78 40.5 92.19 32.38 61.04 27.55 29.9 32.38 40.3 40.5"/>
    <polygon class="cls-1" points="24.01 9 17.88 9 29.32 26.9 33.01 19.54 24.01 9"/>
    <polygon class="cls-4" points="17.88 9 29.32 26.9 28.83 28.26 21.09 29.44 15.29 13.48 17.88 9"/>
    <polygon class="cls-4" points="32.19 51.44 46.85 52.51 61.04 40.3 61.04 39.13 40.81 42.13 32.19 51.44"/>
    <polygon class="cls-1" points="16.73 46.52 9 44.86 21.09 29.44 29.93 28.09 29.93 29.57 16.73 46.52"/>
    <polygon class="cls-7" points="40.3 40.5 40.81 42.13 32.19 51.44 17.41 45.65 27.54 32.64 29.9 32.38 40.3 40.5"/>
    <polygon class="cls-3" points="37.51 91.37 39.53 82.46 43.53 97.31 40.91 104.06 37.51 91.37"/>
    <path class="cls-9" d="m43.41,76.65l8.44-14.06-5.01-10.09-14.66-1.07,2.79,9.2,10.03,2.84-5.78,9.96c-.18-.02-.37-.03-.55-.03-.91,0-1.76.24-2.49.65l-14.62-7.65.16-16.29c1.33-.92,2.2-2.45,2.2-4.19,0-2.81-2.27-5.08-5.08-5.08s-5.08,2.27-5.08,5.08c0,1.68.82,3.17,2.08,4.1v19.6l17.88,10c.52,2.26,2.54,3.94,4.95,3.94,2.81,0,5.08-2.27,5.08-5.08,0-.65-.12-1.26-.34-1.83"/>
    <polygon class="cls-5" points="43.41 55.63 37.71 54.91 38.85 58.5 45.5 60.23 43.41 55.63"/>
    <polygon class="cls-2" points="84.58 91.37 113.09 73.98 105.65 69.24 82.56 82.46 84.58 91.37"/>
    <polygon class="cls-4" points="103.35 67.62 87.11 60.64 77.08 63.48 82.27 78.21 103.35 67.62"/>
    <polygon class="cls-4" points="78.56 97.31 71.67 86.66 70.23 62.59 70.56 61.93 82.56 82.46 78.56 97.31"/>
    <polygon class="cls-8" points="103.35 67.62 87.11 60.64 89.89 51.44 103.26 46.2 103.35 67.62"/>
    <polygon class="cls-7" points="113.09 44.86 113.09 73.98 105.65 69.24 105.03 46.59 113.09 44.86"/>
    <polygon class="cls-1" points="98.08 9 104.21 9 92.77 26.9 89.08 19.54 98.08 9"/>
    <polygon class="cls-4" points="104.21 9 92.77 26.9 93.26 28.26 101 29.44 106.8 13.48 104.21 9"/>
    <polygon class="cls-4" points="89.89 51.44 75.24 52.51 61.04 40.3 61.04 39.13 81.28 42.13 89.89 51.44"/>
    <polygon class="cls-1" points="105.36 46.52 113.09 44.86 101 29.44 92.16 28.09 92.16 29.57 105.36 46.52"/>
    <polygon class="cls-7" points="81.78 40.5 81.28 42.13 89.89 51.44 104.68 45.65 94.55 32.64 92.19 32.38 81.78 40.5"/>
    <polygon class="cls-3" points="84.58 91.37 82.56 82.46 78.56 97.31 81.18 104.06 84.58 91.37"/>
    <path class="cls-9" d="m78.67,76.65l-8.44-14.06,5.01-10.09,14.66-1.07-2.79,9.2-10.03,2.84,5.78,9.96c.18-.02.37-.03.55-.03.91,0,1.76.24,2.49.65l14.62-7.65-.16-16.29c-1.33-.92-2.2-2.45-2.2-4.19,0-2.81,2.27-5.08,5.08-5.08s5.08,2.27,5.08,5.08c0,1.68-.82,3.17-2.08,4.1v19.6l-17.88,10c-.52,2.26-2.54,3.94-4.95,3.94-2.8,0-5.08-2.27-5.08-5.08,0-.65.12-1.26.34-1.83"/>
    <polygon class="cls-5" points="78.68 55.63 84.37 54.91 83.24 58.5 76.59 60.23 78.68 55.63"/>
    <path class="cls-9" d="m44.13,37.2l16.92-2.78,16.92,2.78c.93-1.06,2.3-1.73,3.82-1.73,2.8,0,5.08,2.27,5.08,5.08s-2.27,5.08-5.08,5.08c-2.02,0-3.77-1.18-4.58-2.89l-16.15-2.43-16.15,2.43c-.82,1.71-2.56,2.89-4.58,2.89-2.8,0-5.08-2.27-5.08-5.08s2.27-5.08,5.08-5.08c1.52,0,2.89.67,3.82,1.73"/>
    <path class="cls-9" d="m33.69,26.17l27.35-4.49,27.35,4.49c.92-.93,2.2-1.51,3.62-1.51,2.81,0,5.08,2.27,5.08,5.08s-2.27,5.08-5.08,5.08c-2.14,0-3.96-1.32-4.72-3.19l-26.25-4.07-26.25,4.07c-.75,1.87-2.58,3.19-4.72,3.19-2.81,0-5.08-2.27-5.08-5.08s2.27-5.08,5.08-5.08c1.42,0,2.7.58,3.62,1.51"/>
  </g>
</svg>
