
<?xml version="1.0" encoding="UTF-8"?>
<svg id="_Слой_2" data-name="Слой 2" xmlns="http://www.w3.org/2000/svg" viewBox="0 0 256.83 173.96">
  <defs>
    <style>
      .cls-1 {
        fill: #832c05;
      }

      .cls-1, .cls-2, .cls-3, .cls-4, .cls-5, .cls-6, .cls-7, .cls-8, .cls-9, .cls-10, .cls-11 {
        stroke-width: 0px;
      }

      .cls-1, .cls-2, .cls-3, .cls-4, .cls-5, .cls-6, .cls-7, .cls-8, .cls-11 {
        fill-rule: evenodd;
      }

      .cls-2 {
        fill: #b2b2b2;
      }

      .cls-3 {
        fill: #dadada;
      }

      .cls-4, .cls-10 {
        fill: #d84f0d;
      }

      .cls-5 {
        fill: #fff;
      }

      .cls-6 {
        fill: #ef7d00;
      }

      .cls-7 {
        fill: #9f3709;
      }

      .cls-8 {
        fill: #ba440b;
      }

      .cls-12 {
        fill: #1d1d1b;
        font-family: MontserratRoman-Regular, Montserrat;
        font-size: 11px;
        font-variation-settings: 'wght' 400;
        letter-spacing: .04em;
      }
    </style>
  </defs>
  <g id="_Слой_1-2" data-name="Слой 1">
    <path class="cls-9" d="m207.38,132.05h4.34v18.75h-4.34v-18.75Zm-10.93,19.07c-1.48,0-2.92-.2-4.3-.6-1.38-.4-2.5-.92-3.33-1.57l1.47-3.27c.8.59,1.76,1.06,2.87,1.42,1.11.36,2.21.54,3.32.54,1.23,0,2.14-.18,2.73-.55.59-.37.88-.85.88-1.46,0-.45-.17-.82-.52-1.11-.35-.3-.8-.53-1.34-.71-.54-.18-1.28-.38-2.21-.59-1.43-.34-2.6-.68-3.51-1.02-.91-.34-1.69-.88-2.34-1.63-.65-.75-.98-1.75-.98-3,0-1.09.3-2.08.88-2.96.59-.88,1.48-1.58,2.67-2.1,1.19-.52,2.64-.78,4.35-.78,1.2,0,2.37.14,3.51.43,1.14.29,2.14.7,3,1.23l-1.34,3.3c-1.73-.98-3.46-1.47-5.2-1.47-1.21,0-2.11.2-2.69.59-.58.39-.87.91-.87,1.55s.34,1.12,1,1.43c.67.31,1.69.62,3.07.92,1.43.34,2.6.68,3.51,1.02.91.34,1.69.88,2.34,1.61.65.73.98,1.72.98,2.97,0,1.07-.3,2.05-.9,2.93-.6.88-1.5,1.58-2.69,2.1-1.2.52-2.65.78-4.37.78Zm-13.98-12.27c0-1.05-.34-1.86-1.02-2.42-.68-.56-1.67-.84-2.97-.84h-3.54v6.54h3.54c1.3,0,2.29-.29,2.97-.86.68-.57,1.02-1.38,1.02-2.41Zm.08,11.95l-3.62-5.22h-3.99v5.22h-4.34v-18.75h8.12c1.66,0,3.1.28,4.33.83,1.22.55,2.16,1.34,2.83,2.36.66,1.02.99,2.22.99,3.62s-.33,2.59-1,3.6c-.67,1.01-1.62,1.78-2.85,2.32l4.21,6.03h-4.66Zm-15.4-3.48v3.48h-14.52v-18.75h14.17v3.48h-9.86v4.07h8.71v3.38h-8.71v4.34h10.21Zm-16.07-15.27l-8.12,18.75h-4.29l-8.09-18.75h4.69l5.71,13.39,5.79-13.39h4.31Zm-22.37,0v18.75h-3.56l-9.35-11.39v11.39h-4.29v-18.75h3.59l9.32,11.38v-11.38h4.29Zm-30.73,15.38c1.11,0,2.11-.25,3-.76.89-.51,1.59-1.22,2.1-2.13.51-.91.76-1.95.76-3.11s-.25-2.2-.76-3.11c-.51-.91-1.21-1.62-2.1-2.13-.89-.51-1.89-.76-3-.76s-2.11.25-3,.76c-.89.51-1.59,1.22-2.1,2.13-.51.91-.76,1.95-.76,3.11s.25,2.2.76,3.11c.51.91,1.21,1.62,2.1,2.13.89.51,1.89.76,3,.76Zm0,3.7c-1.95,0-3.7-.42-5.26-1.26-1.56-.84-2.79-2-3.67-3.47-.88-1.47-1.33-3.13-1.33-4.97s.44-3.5,1.33-4.97c.88-1.47,2.11-2.63,3.67-3.47,1.56-.84,3.32-1.26,5.26-1.26s3.7.42,5.25,1.26c1.55.84,2.78,2,3.67,3.47.89,1.47,1.34,3.13,1.34,4.97s-.45,3.5-1.34,4.97c-.89,1.47-2.12,2.63-3.67,3.47-1.55.84-3.3,1.26-5.25,1.26Zm-19.34,0c-1.91,0-3.64-.42-5.18-1.25-1.55-.83-2.76-1.98-3.64-3.46-.88-1.47-1.33-3.14-1.33-5s.44-3.52,1.33-5c.88-1.47,2.1-2.63,3.64-3.46,1.54-.83,3.28-1.25,5.21-1.25,1.63,0,3.09.29,4.41.86,1.31.57,2.41,1.39,3.31,2.46l-2.79,2.57c-1.27-1.46-2.84-2.2-4.71-2.2-1.16,0-2.2.25-3.11.76-.91.51-1.62,1.22-2.13,2.13-.51.91-.76,1.95-.76,3.11s.25,2.2.76,3.11c.51.91,1.22,1.62,2.13,2.13.91.51,1.95.76,3.11.76,1.88,0,3.45-.74,4.71-2.22l2.79,2.57c-.89,1.09-2,1.92-3.32,2.49-1.32.57-2.79.86-4.42.86Zm-28.29-9.03c1.3,0,2.29-.28,2.97-.84.68-.56,1.02-1.36,1.02-2.4s-.34-1.86-1.02-2.42c-.68-.56-1.67-.84-2.97-.84h-3.54v6.51h3.54Zm.24-10.05c1.66,0,3.1.28,4.33.83,1.22.55,2.16,1.34,2.83,2.36.66,1.02.99,2.22.99,3.62s-.33,2.58-.99,3.6c-.66,1.03-1.6,1.81-2.83,2.36-1.22.54-2.67.82-4.33.82h-3.78v5.17h-4.34v-18.75h8.12Zm-21.64,15.38c1.11,0,2.11-.25,3-.76.89-.51,1.59-1.22,2.1-2.13.51-.91.76-1.95.76-3.11s-.25-2.2-.76-3.11c-.51-.91-1.21-1.62-2.1-2.13-.89-.51-1.89-.76-3-.76s-2.11.25-3,.76c-.89.51-1.59,1.22-2.1,2.13-.51.91-.76,1.95-.76,3.11s.25,2.2.76,3.11c.51.91,1.21,1.62,2.1,2.13.89.51,1.89.76,3,.76Zm0,3.7c-1.95,0-3.7-.42-5.26-1.26-1.56-.84-2.79-2-3.67-3.47-.88-1.47-1.33-3.13-1.33-4.97s.44-3.5,1.33-4.97c.88-1.47,2.11-2.63,3.67-3.47,1.56-.84,3.32-1.26,5.26-1.26s3.7.42,5.25,1.26c1.55.84,2.78,2,3.67,3.47.89,1.47,1.34,3.13,1.34,4.97s-.45,3.5-1.34,4.97c-.89,1.47-2.12,2.63-3.67,3.47-1.55.84-3.3,1.26-5.25,1.26Zm-21.48-15.54H1.46v-3.54h16.34v3.54h-6v15.22h-4.34v-15.22Z"/>
    <path class="cls-10" d="m255.97,132.05v18.75h-3.56l-9.35-11.39v11.39h-4.29v-18.75h3.59l9.32,11.38v-11.38h4.29Zm-30.73,15.38c1.11,0,2.11-.25,3-.76.89-.51,1.59-1.22,2.1-2.13.51-.91.76-1.95.76-3.11s-.25-2.2-.76-3.11c-.51-.91-1.21-1.62-2.1-2.13-.89-.51-1.89-.76-3-.76s-2.11.25-3,.76c-.89.51-1.59,1.22-2.1,2.13-.51.91-.76,1.95-.76,3.11s.25,2.2.76,3.11c.51.91,1.21,1.62,2.1,2.13.89.51,1.89.76,3,.76Zm0,3.7c-1.95,0-3.7-.42-5.26-1.26-1.56-.84-2.79-2-3.67-3.47-.88-1.47-1.33-3.13-1.33-4.97s.44-3.5,1.33-4.97c.88-1.47,2.11-2.63,3.67-3.47,1.56-.84,3.32-1.26,5.26-1.26s3.7.42,5.25,1.26c1.55.84,2.78,2,3.67,3.47.89,1.47,1.34,3.13,1.34,4.97s-.45,3.5-1.34,4.97c-.89,1.47-2.12,2.63-3.67,3.47-1.55.84-3.3,1.26-5.25,1.26Z"/>
    <polygon class="cls-5" points="112.43 96.92 106.67 93.62 103.75 82.7 78.44 67.26 78.44 35.53 87.74 23.67 83.03 10.73 89.23 0 102.4 0 109.55 8.38 130.38 4.99 151.22 8.38 158.37 0 171.54 0 177.74 10.73 173.03 23.67 182.33 35.53 182.33 67.26 157.02 82.7 154.1 93.62 148.34 96.92 148.34 102.34 130.38 109.03 112.43 102.34 112.43 96.92"/>
    <polygon class="cls-11" points="115.41 95.19 109.23 91.65 106.32 80.78 81.41 65.59 81.41 36.56 91.1 24.21 86.31 11.02 90.95 2.98 101.03 2.98 108.37 11.59 130.38 8.01 152.4 11.59 159.74 2.98 169.82 2.98 174.46 11.02 169.67 24.21 179.36 36.56 179.36 65.59 154.45 80.78 151.54 91.65 145.36 95.19 145.36 100.27 130.38 105.86 115.41 100.27 115.41 95.19"/>
    <polygon class="cls-6" points="120.09 97.02 130.38 100.86 140.68 97.02 140.68 92.48 147.52 88.56 150.42 77.76 174.68 62.96 174.68 38.17 164.38 25.05 169.32 11.47 167.12 7.66 161.9 7.66 154.25 16.63 130.38 12.75 106.52 16.63 98.87 7.66 93.65 7.66 91.45 11.47 96.39 25.05 86.09 38.17 86.09 62.96 110.35 77.76 113.25 88.56 120.09 92.48 120.09 97.02"/>
    <polygon class="cls-11" points="130.38 85.85 128.08 85 127.12 81 122.89 79.02 121.34 73.75 130.38 74.88 139.43 73.75 137.88 79.02 133.65 81 132.69 85 130.38 85.85"/>
    <polygon class="cls-2" points="110.35 77.76 86.09 62.96 92.42 58.93 112.07 70.17 110.35 77.76"/>
    <polygon class="cls-11" points="130.38 87.25 117.56 93.29 117.56 94.59 130.38 94 143.21 94.59 143.21 93.29 130.38 87.25"/>
    <polygon class="cls-5" points="130.38 94 120.09 94.48 120.09 97.02 130.38 100.86 140.68 97.02 140.68 94.48 130.38 94"/>
    <polygon class="cls-5" points="119.72 92.27 130.38 87.25 141.05 92.27 147.52 88.56 150.42 77.76 148.7 70.17 145.29 82.81 139.43 73.75 137.88 79.02 133.65 81 132.69 85 130.38 85.85 128.08 85 127.12 81 122.89 79.02 121.34 73.75 115.48 82.81 112.07 70.17 110.35 77.76 113.25 88.56 119.72 92.27"/>
    <polygon class="cls-4" points="94.38 57.54 108.21 51.6 116.74 54.02 112.32 66.55 94.38 57.54"/>
    <polygon class="cls-4" points="115.48 82.81 121.34 73.75 122.57 53.27 122.29 52.7 112.07 70.17 115.48 82.81"/>
    <polygon class="cls-8" points="94.38 57.54 108.21 51.6 105.83 43.77 94.46 39.32 94.38 57.54"/>
    <polygon class="cls-7" points="86.09 38.17 86.09 62.96 92.42 58.93 92.95 39.65 86.09 38.17"/>
    <polygon class="cls-7" points="106.52 16.63 130.38 12.75 154.25 16.63 157.38 22.89 130.38 18.45 103.39 22.89 106.52 16.63"/>
    <polygon class="cls-4" points="112.73 34.46 130.38 30.75 148.04 34.46 156.89 27.56 130.38 23.45 103.88 27.56 112.73 34.46"/>
    <polygon class="cls-1" points="98.87 7.66 93.65 7.66 103.39 22.89 106.52 16.63 98.87 7.66"/>
    <polygon class="cls-4" points="93.65 7.66 103.39 22.89 102.97 24.05 96.39 25.05 91.45 11.47 93.65 7.66"/>
    <polygon class="cls-4" points="105.83 43.77 118.31 44.68 130.38 34.3 130.38 33.3 113.16 35.85 105.83 43.77"/>
    <polygon class="cls-1" points="92.67 39.59 86.09 38.17 96.39 25.05 103.91 23.9 103.91 25.17 92.67 39.59"/>
    <polygon class="cls-7" points="112.73 34.46 113.16 35.85 105.83 43.77 93.25 38.85 101.87 27.78 103.88 27.56 112.73 34.46"/>
    <polygon class="cls-3" points="110.35 77.76 112.07 70.17 115.48 82.81 113.25 88.56 110.35 77.76"/>
    <path class="cls-11" d="m115.38,65.23l7.19-11.96-4.26-8.58-12.47-.91,2.37,7.83,8.53,2.42-4.92,8.47c-.15-.02-.31-.03-.47-.03-.77,0-1.49.2-2.12.56l-12.44-6.51.13-13.86c1.13-.78,1.88-2.08,1.88-3.56,0-2.39-1.93-4.32-4.32-4.32s-4.32,1.93-4.32,4.32c0,1.43.7,2.7,1.77,3.49v16.68l15.22,8.51c.44,1.92,2.16,3.36,4.21,3.36,2.39,0,4.32-1.94,4.32-4.32,0-.55-.1-1.07-.29-1.56"/>
    <polygon class="cls-5" points="115.38 47.34 110.53 46.73 111.5 49.78 117.16 51.26 115.38 47.34"/>
    <polygon class="cls-2" points="150.42 77.76 174.68 62.96 168.35 58.93 148.7 70.17 150.42 77.76"/>
    <polygon class="cls-4" points="166.39 57.54 152.56 51.6 144.03 54.02 148.45 66.55 166.39 57.54"/>
    <polygon class="cls-4" points="145.29 82.81 139.43 73.75 138.2 53.27 138.48 52.7 148.7 70.17 145.29 82.81"/>
    <polygon class="cls-8" points="166.39 57.54 152.56 51.6 154.94 43.77 166.31 39.32 166.39 57.54"/>
    <polygon class="cls-7" points="174.68 38.17 174.68 62.96 168.35 58.93 167.82 39.65 174.68 38.17"/>
    <polygon class="cls-1" points="161.9 7.66 167.12 7.66 157.38 22.89 154.25 16.63 161.9 7.66"/>
    <polygon class="cls-4" points="167.12 7.66 157.38 22.89 157.8 24.05 164.38 25.05 169.32 11.47 167.12 7.66"/>
    <polygon class="cls-4" points="154.94 43.77 142.46 44.68 130.38 34.3 130.38 33.3 147.61 35.85 154.94 43.77"/>
    <polygon class="cls-1" points="168.1 39.59 174.68 38.17 164.38 25.05 156.86 23.9 156.86 25.17 168.1 39.59"/>
    <polygon class="cls-7" points="148.03 34.46 147.61 35.85 154.94 43.77 167.52 38.85 158.9 27.78 156.89 27.56 148.03 34.46"/>
    <polygon class="cls-3" points="150.42 77.76 148.7 70.17 145.29 82.81 147.52 88.56 150.42 77.76"/>
    <path class="cls-11" d="m145.39,65.23l-7.19-11.96,4.26-8.58,12.47-.91-2.37,7.83-8.53,2.42,4.92,8.47c.15-.02.31-.03.47-.03.77,0,1.49.2,2.12.56l12.44-6.51-.13-13.86c-1.13-.78-1.88-2.08-1.88-3.56,0-2.39,1.93-4.32,4.32-4.32s4.32,1.93,4.32,4.32c0,1.43-.7,2.7-1.77,3.49v16.68l-15.22,8.51c-.44,1.92-2.16,3.36-4.21,3.36-2.39,0-4.32-1.94-4.32-4.32,0-.55.1-1.07.29-1.56"/>
    <polygon class="cls-5" points="145.39 47.34 150.24 46.73 149.27 49.78 143.61 51.26 145.39 47.34"/>
    <path class="cls-11" d="m115.99,31.66l14.4-2.36,14.4,2.36c.79-.9,1.96-1.47,3.25-1.47,2.39,0,4.32,1.93,4.32,4.32s-1.93,4.32-4.32,4.32c-1.72,0-3.21-1.01-3.9-2.46l-13.75-2.07-13.75,2.07c-.7,1.46-2.18,2.46-3.9,2.46-2.39,0-4.32-1.93-4.32-4.32s1.94-4.32,4.32-4.32c1.3,0,2.46.57,3.25,1.47"/>
    <path class="cls-11" d="m107.11,22.27l23.28-3.82,23.28,3.82c.78-.8,1.87-1.29,3.08-1.29,2.39,0,4.32,1.93,4.32,4.32s-1.93,4.32-4.32,4.32c-1.82,0-3.37-1.12-4.01-2.71l-22.34-3.47-22.34,3.47c-.64,1.59-2.19,2.71-4.01,2.71-2.39,0-4.32-1.93-4.32-4.32s1.93-4.32,4.32-4.32c1.2,0,2.29.49,3.08,1.29"/>
    <text class="cls-12" transform="translate(0 171.11)"><tspan x="0" y="0">ЦИФРОВАЯ ТРАНСФОРМАЦИЯ БИЗНЕСА</tspan></text>
  </g>
</svg>
