<?xml version="1.0" encoding="UTF-8"?>
<svg id="_Слой_2" data-name="Слой 2" xmlns="http://www.w3.org/2000/svg" viewBox="0 0 325.52 78.94">
  <defs>
    <style>
      .cls-1 {
        fill: #832c05;
      }

      .cls-1, .cls-2, .cls-3, .cls-4, .cls-5, .cls-6, .cls-7, .cls-8, .cls-9, .cls-10, .cls-11 {
        stroke-width: 0px;
      }

      .cls-1, .cls-2, .cls-3, .cls-4, .cls-5, .cls-6, .cls-7, .cls-8, .cls-11 {
        fill-rule: evenodd;
      }

      .cls-2 {
        fill: #b2b2b2;
      }

      .cls-3 {
        fill: #dadada;
      }

      .cls-4, .cls-9 {
        fill: #d84f0d;
      }

      .cls-5, .cls-10 {
        fill: #fff;
      }

      .cls-6 {
        fill: #ef7d00;
      }

      .cls-7 {
        fill: #9f3709;
      }

      .cls-8 {
        fill: #ba440b;
      }
    </style>
  </defs>
  <g id="_Слой_1-2" data-name="Слой 1">
    <g>
      <path class="cls-10" d="m281.5,20.28h3.93v16.98h-3.93v-16.98Zm-9.9,17.27c-1.34,0-2.64-.18-3.89-.55-1.25-.36-2.26-.84-3.02-1.42l1.33-2.96c.73.53,1.59.96,2.6,1.29,1,.32,2.01.49,3.01.49,1.12,0,1.94-.17,2.47-.5.53-.33.8-.77.8-1.32,0-.4-.16-.74-.47-1.01-.32-.27-.72-.48-1.21-.64-.49-.16-1.16-.34-2-.53-1.29-.31-2.35-.62-3.18-.92-.82-.31-1.53-.8-2.12-1.48s-.89-1.59-.89-2.72c0-.99.27-1.88.8-2.68.53-.8,1.34-1.43,2.41-1.9,1.08-.47,2.39-.7,3.94-.7,1.08,0,2.14.13,3.18.39,1.03.26,1.94.63,2.72,1.12l-1.21,2.98c-1.57-.89-3.14-1.33-4.71-1.33-1.1,0-1.91.18-2.44.53-.53.36-.79.82-.79,1.41s.3,1.02.91,1.3c.61.28,1.53.56,2.78.84,1.29.31,2.35.61,3.18.92.82.31,1.53.79,2.12,1.46.59.66.89,1.56.89,2.69,0,.97-.27,1.86-.81,2.66-.54.8-1.35,1.44-2.44,1.9-1.08.47-2.4.7-3.95.7Zm-12.66-11.11c0-.95-.31-1.69-.92-2.2-.61-.51-1.51-.76-2.69-.76h-3.2v5.92h3.2c1.18,0,2.08-.26,2.69-.78.61-.52.92-1.25.92-2.18Zm.07,10.82l-3.27-4.73h-3.61v4.73h-3.93v-16.98h7.35c1.5,0,2.81.25,3.92.75,1.11.5,1.96,1.21,2.56,2.13.6.92.9,2.01.9,3.28s-.3,2.35-.91,3.26c-.61.91-1.47,1.61-2.58,2.1l3.81,5.46h-4.22Zm-13.95-3.15v3.15h-13.15v-16.98h12.83v3.15h-8.93v3.69h7.88v3.06h-7.88v3.93h9.24Zm-14.56-13.83l-7.35,16.98h-3.88l-7.33-16.98h4.25l5.17,12.13,5.24-12.13h3.91Zm-20.26,0v16.98h-3.23l-8.47-10.31v10.31h-3.88v-16.98h3.25l8.44,10.31v-10.31h3.88Zm-27.82,13.92c1,0,1.91-.23,2.72-.69.81-.46,1.44-1.1,1.9-1.93.46-.83.69-1.76.69-2.81s-.23-1.99-.69-2.81c-.46-.82-1.1-1.47-1.9-1.93-.81-.46-1.71-.69-2.72-.69s-1.91.23-2.72.69c-.81.46-1.44,1.1-1.9,1.93-.46.83-.69,1.76-.69,2.81s.23,1.99.69,2.81c.46.82,1.1,1.47,1.9,1.93.81.46,1.71.69,2.72.69Zm0,3.35c-1.76,0-3.35-.38-4.77-1.14-1.42-.76-2.52-1.81-3.32-3.14-.8-1.33-1.2-2.83-1.2-4.5s.4-3.17,1.2-4.5c.8-1.33,1.91-2.38,3.32-3.14,1.41-.76,3-1.14,4.77-1.14s3.35.38,4.75,1.14c1.41.76,2.51,1.81,3.32,3.14.81,1.33,1.21,2.83,1.21,4.5s-.4,3.17-1.21,4.5c-.81,1.33-1.92,2.38-3.32,3.14-1.41.76-2.99,1.14-4.75,1.14Zm-17.51,0c-1.73,0-3.29-.38-4.69-1.13-1.4-.75-2.5-1.8-3.3-3.13-.8-1.33-1.2-2.84-1.2-4.52s.4-3.19,1.2-4.52c.8-1.33,1.9-2.38,3.3-3.13,1.4-.75,2.97-1.13,4.72-1.13,1.47,0,2.8.26,3.99.78,1.19.52,2.19,1.26,3,2.23l-2.52,2.33c-1.15-1.33-2.57-1.99-4.27-1.99-1.05,0-1.99.23-2.81.69-.82.46-1.47,1.1-1.93,1.93-.46.83-.69,1.76-.69,2.81s.23,1.99.69,2.81c.46.82,1.1,1.47,1.93,1.93.83.46,1.76.69,2.81.69,1.7,0,3.12-.67,4.27-2.01l2.52,2.33c-.81.99-1.81,1.74-3.01,2.26-1.2.52-2.53.78-4,.78Zm-25.62-8.18c1.18,0,2.08-.25,2.69-.76.61-.51.92-1.23.92-2.17s-.31-1.69-.92-2.2c-.61-.51-1.51-.76-2.69-.76h-3.2v5.89h3.2Zm.22-9.1c1.5,0,2.81.25,3.92.75,1.11.5,1.96,1.21,2.56,2.13.6.92.9,2.01.9,3.28s-.3,2.33-.9,3.26c-.6.93-1.45,1.64-2.56,2.13-1.11.49-2.41.74-3.92.74h-3.42v4.68h-3.93v-16.98h7.35Zm-19.6,13.92c1,0,1.91-.23,2.72-.69.81-.46,1.44-1.1,1.9-1.93.46-.83.69-1.76.69-2.81s-.23-1.99-.69-2.81c-.46-.82-1.1-1.47-1.9-1.93-.81-.46-1.71-.69-2.72-.69s-1.91.23-2.72.69c-.81.46-1.44,1.1-1.9,1.93-.46.83-.69,1.76-.69,2.81s.23,1.99.69,2.81c.46.82,1.1,1.47,1.9,1.93.81.46,1.71.69,2.72.69Zm0,3.35c-1.76,0-3.35-.38-4.77-1.14-1.42-.76-2.52-1.81-3.32-3.14-.8-1.33-1.2-2.83-1.2-4.5s.4-3.17,1.2-4.5c.8-1.33,1.91-2.38,3.32-3.14,1.41-.76,3-1.14,4.77-1.14s3.35.38,4.75,1.14c1.41.76,2.51,1.81,3.32,3.14.81,1.33,1.21,2.83,1.21,4.5s-.4,3.17-1.21,4.5c-.81,1.33-1.92,2.38-3.32,3.14-1.41.76-2.99,1.14-4.75,1.14Zm-19.46-14.07h-5.43v-3.2h14.8v3.2h-5.43v13.78h-3.93v-13.78Z"/>
      <path class="cls-9" d="m325.5,20.28v16.98h-3.23l-8.47-10.31v10.31h-3.88v-16.98h3.25l8.44,10.31v-10.31h3.88Zm-27.82,13.92c1,0,1.91-.23,2.72-.69.81-.46,1.44-1.1,1.9-1.93.46-.83.69-1.76.69-2.81s-.23-1.99-.69-2.81c-.46-.82-1.1-1.47-1.9-1.93-.81-.46-1.71-.69-2.72-.69s-1.91.23-2.72.69c-.81.46-1.44,1.1-1.9,1.93-.46.83-.69,1.76-.69,2.81s.23,1.99.69,2.81c.46.82,1.1,1.47,1.9,1.93.81.46,1.71.69,2.72.69Zm0,3.35c-1.76,0-3.35-.38-4.77-1.14-1.41-.76-2.52-1.81-3.32-3.14-.8-1.33-1.2-2.83-1.2-4.5s.4-3.17,1.2-4.5c.8-1.33,1.91-2.38,3.32-3.14,1.42-.76,3-1.14,4.77-1.14s3.35.38,4.75,1.14c1.41.76,2.51,1.81,3.32,3.14.81,1.33,1.21,2.83,1.21,4.5s-.4,3.17-1.21,4.5c-.81,1.33-1.92,2.38-3.32,3.14-1.41.76-2.99,1.14-4.75,1.14Z"/>
      <polygon class="cls-5" points="24.62 70.17 20.44 67.78 18.33 59.88 0 48.69 0 25.72 6.73 17.14 3.33 7.77 7.82 0 17.35 0 22.53 6.07 37.61 3.61 52.7 6.07 57.87 0 67.41 0 71.89 7.77 68.49 17.14 75.22 25.72 75.22 48.69 56.89 59.88 54.78 67.78 50.61 70.17 50.61 74.09 37.61 78.94 24.62 74.09 24.62 70.17"/>
      <polygon class="cls-11" points="26.77 68.92 22.29 66.35 20.19 58.48 2.16 47.48 2.16 26.47 9.17 17.53 5.7 7.98 9.06 2.16 16.36 2.16 21.67 8.39 37.61 5.8 53.55 8.39 58.87 2.16 66.16 2.16 69.52 7.98 66.05 17.53 73.07 26.47 73.07 47.48 55.04 58.48 52.93 66.35 48.45 68.92 48.45 72.6 37.61 76.64 26.77 72.6 26.77 68.92"/>
      <polygon class="cls-6" points="30.16 70.24 37.61 73.02 45.06 70.24 45.06 66.96 50.02 64.11 52.11 56.3 69.68 45.58 69.68 27.64 62.23 18.14 65.8 8.3 64.21 5.54 60.43 5.54 54.89 12.04 37.61 9.23 20.34 12.04 14.79 5.54 11.02 5.54 9.42 8.3 13 18.14 5.54 27.64 5.54 45.58 23.11 56.3 25.2 64.11 30.16 66.96 30.16 70.24"/>
      <polygon class="cls-11" points="37.61 62.15 35.94 61.54 35.25 58.64 32.18 57.21 31.06 53.4 37.61 54.21 44.16 53.4 43.04 57.21 39.98 58.64 39.28 61.54 37.61 62.15"/>
      <polygon class="cls-2" points="23.11 56.3 5.54 45.58 10.13 42.66 24.35 50.8 23.11 56.3"/>
      <polygon class="cls-11" points="37.61 63.17 28.33 67.54 28.33 68.49 37.61 68.06 46.9 68.49 46.9 67.54 37.61 63.17"/>
      <polygon class="cls-5" points="37.61 68.06 30.16 68.4 30.16 70.24 37.61 73.02 45.06 70.24 45.06 68.4 37.61 68.06"/>
      <polygon class="cls-5" points="29.89 66.8 37.61 63.17 45.33 66.8 50.02 64.11 52.11 56.3 50.87 50.8 48.4 59.96 44.16 53.4 43.04 57.21 39.98 58.64 39.28 61.54 37.61 62.15 35.94 61.54 35.25 58.64 32.18 57.21 31.06 53.4 26.82 59.96 24.35 50.8 23.11 56.3 25.2 64.11 29.89 66.8"/>
      <polygon class="cls-4" points="11.55 41.66 21.55 37.36 27.73 39.11 24.53 48.19 11.55 41.66"/>
      <polygon class="cls-4" points="26.82 59.96 31.06 53.4 31.95 38.57 31.75 38.16 24.35 50.8 26.82 59.96"/>
      <polygon class="cls-8" points="11.55 41.66 21.55 37.36 19.84 31.69 11.6 28.47 11.55 41.66"/>
      <polygon class="cls-7" points="5.54 27.64 5.54 45.58 10.13 42.66 10.51 28.7 5.54 27.64"/>
      <polygon class="cls-7" points="20.34 12.04 37.61 9.23 54.89 12.04 57.16 16.57 37.61 13.35 18.07 16.57 20.34 12.04"/>
      <polygon class="cls-4" points="24.83 24.95 37.61 22.26 50.39 24.95 56.8 19.95 37.61 16.98 18.42 19.95 24.83 24.95"/>
      <polygon class="cls-1" points="14.79 5.54 11.02 5.54 18.07 16.57 20.34 12.04 14.79 5.54"/>
      <polygon class="cls-4" points="11.02 5.54 18.07 16.57 17.76 17.41 13 18.14 9.42 8.3 11.02 5.54"/>
      <polygon class="cls-4" points="19.84 31.69 28.87 32.35 37.61 24.83 37.61 24.11 25.14 25.95 19.84 31.69"/>
      <polygon class="cls-1" points="10.31 28.66 5.54 27.64 13 18.14 18.44 17.31 18.44 18.22 10.31 28.66"/>
      <polygon class="cls-7" points="24.83 24.95 25.14 25.95 19.84 31.69 10.73 28.12 16.97 20.11 18.42 19.95 24.83 24.95"/>
      <polygon class="cls-3" points="23.11 56.3 24.35 50.8 26.82 59.96 25.2 64.11 23.11 56.3"/>
      <path class="cls-11" d="m26.75,47.23l5.2-8.66-3.08-6.22-9.03-.66,1.72,5.67,6.18,1.75-3.56,6.13c-.11-.01-.23-.02-.34-.02-.56,0-1.08.15-1.54.4l-9.01-4.71.1-10.04c.82-.56,1.36-1.51,1.36-2.58,0-1.73-1.4-3.13-3.13-3.13s-3.13,1.4-3.13,3.13c0,1.04.5,1.96,1.28,2.53v12.08l11.02,6.16c.32,1.39,1.56,2.43,3.05,2.43,1.73,0,3.13-1.4,3.13-3.13,0-.4-.07-.78-.21-1.13"/>
      <polygon class="cls-5" points="26.75 34.28 23.24 33.83 23.94 36.04 28.03 37.11 26.75 34.28"/>
      <polygon class="cls-2" points="52.11 56.3 69.68 45.58 65.1 42.66 50.87 50.8 52.11 56.3"/>
      <polygon class="cls-4" points="63.68 41.66 53.67 37.36 47.49 39.11 50.69 48.19 63.68 41.66"/>
      <polygon class="cls-4" points="48.4 59.96 44.16 53.4 43.27 38.57 43.47 38.16 50.87 50.8 48.4 59.96"/>
      <polygon class="cls-8" points="63.68 41.66 53.67 37.36 55.39 31.69 63.62 28.47 63.68 41.66"/>
      <polygon class="cls-7" points="69.68 27.64 69.68 45.58 65.1 42.66 64.71 28.7 69.68 27.64"/>
      <polygon class="cls-1" points="60.43 5.54 64.21 5.54 57.16 16.57 54.89 12.04 60.43 5.54"/>
      <polygon class="cls-4" points="64.21 5.54 57.16 16.57 57.46 17.41 62.23 18.14 65.8 8.3 64.21 5.54"/>
      <polygon class="cls-4" points="55.39 31.69 46.36 32.35 37.61 24.83 37.61 24.11 50.08 25.95 55.39 31.69"/>
      <polygon class="cls-1" points="64.91 28.66 69.68 27.64 62.23 18.14 56.78 17.31 56.78 18.22 64.91 28.66"/>
      <polygon class="cls-7" points="50.39 24.95 50.08 25.95 55.39 31.69 64.5 28.12 58.26 20.11 56.8 19.95 50.39 24.95"/>
      <polygon class="cls-3" points="52.11 56.3 50.87 50.8 48.4 59.96 50.02 64.11 52.11 56.3"/>
      <path class="cls-11" d="m48.47,47.23l-5.2-8.66,3.09-6.22,9.03-.66-1.72,5.67-6.18,1.75,3.56,6.13c.11-.01.23-.02.34-.02.56,0,1.08.15,1.54.4l9.01-4.71-.1-10.04c-.82-.56-1.36-1.51-1.36-2.58,0-1.73,1.4-3.13,3.13-3.13s3.13,1.4,3.13,3.13c0,1.04-.5,1.96-1.28,2.53v12.08l-11.02,6.16c-.32,1.39-1.56,2.43-3.05,2.43-1.73,0-3.13-1.4-3.13-3.13,0-.4.07-.78.21-1.13"/>
      <polygon class="cls-5" points="48.47 34.28 51.99 33.83 51.29 36.04 47.19 37.11 48.47 34.28"/>
      <path class="cls-11" d="m27.19,22.92l10.42-1.71,10.42,1.71c.57-.65,1.42-1.07,2.35-1.07,1.73,0,3.13,1.4,3.13,3.13s-1.4,3.13-3.13,3.13c-1.25,0-2.32-.73-2.82-1.78l-9.95-1.5-9.95,1.5c-.5,1.05-1.58,1.78-2.82,1.78-1.73,0-3.13-1.4-3.13-3.13s1.4-3.13,3.13-3.13c.94,0,1.78.41,2.35,1.07"/>
      <path class="cls-11" d="m20.76,16.12l16.85-2.77,16.85,2.77c.57-.58,1.36-.93,2.23-.93,1.73,0,3.13,1.4,3.13,3.13s-1.4,3.13-3.13,3.13c-1.32,0-2.44-.81-2.91-1.96l-16.18-2.51-16.18,2.51c-.46,1.15-1.59,1.96-2.91,1.96-1.73,0-3.13-1.4-3.13-3.13s1.4-3.13,3.13-3.13c.87,0,1.66.36,2.23.93"/>
      <g>
        <path class="cls-10" d="m94.94,55.69v-7h.73v6.36h4.23v-6.36h.73v7h-5.69Zm6.11,1.64v-1.84l.19.2h-1.34v-.64h1.84v2.28h-.69Z"/>
        <path class="cls-10" d="m103.57,55.69v-7h.73v5.8l4.48-5.8h.67v7h-.73v-5.79l-4.48,5.79h-.67Z"/>
        <path class="cls-10" d="m115.48,55.21c-.83,0-1.55-.12-2.14-.35-.59-.24-1.05-.58-1.37-1.04-.32-.45-.48-1-.48-1.64s.16-1.19.48-1.63c.32-.45.78-.8,1.37-1.04.59-.24,1.31-.36,2.14-.36h.18c.84,0,1.56.12,2.15.36.59.24,1.05.58,1.37,1.04.32.45.48.99.48,1.63s-.16,1.19-.47,1.64c-.32.45-.77.8-1.37,1.04-.59.24-1.3.35-2.13.35h-.21Zm.08-.58h.07c.7,0,1.3-.11,1.79-.3.5-.19.88-.47,1.14-.83.26-.36.39-.81.39-1.33s-.13-.97-.39-1.33c-.26-.36-.64-.63-1.13-.83-.49-.19-1.08-.29-1.77-.29h-.09c-.71,0-1.31.09-1.81.28s-.88.46-1.15.83-.4.81-.4,1.33.13.98.41,1.34c.27.36.66.64,1.16.83.5.19,1.1.28,1.79.28Zm-.33,1.3v-7.48h.69v7.48h-.69Z"/>
        <path class="cls-10" d="m121.7,55.69v-7h2.62c.59,0,1.1.09,1.53.29.43.19.75.46.99.82.23.36.34.79.34,1.29s-.12.92-.34,1.27c-.23.36-.56.63-.99.83s-.94.29-1.53.29h-2.21l.33-.35v2.56h-.74Zm.74-2.5l-.33-.36h2.19c.7,0,1.23-.15,1.59-.46.36-.3.54-.73.54-1.28s-.18-.99-.54-1.3-.89-.46-1.59-.46h-2.19l.33-.35v4.21Z"/>
        <path class="cls-10" d="m132.22,55.75c-.53,0-1.01-.09-1.46-.26s-.84-.43-1.17-.75-.59-.7-.77-1.13-.27-.9-.27-1.42.09-.99.27-1.42.44-.81.77-1.13.72-.57,1.17-.75c.45-.18.94-.26,1.47-.26s1.01.09,1.46.26.83.42,1.17.75c.33.32.59.7.77,1.13.18.43.28.91.28,1.42s-.09.99-.28,1.42c-.18.43-.44.81-.77,1.13-.33.32-.72.57-1.17.75s-.93.26-1.46.26Zm0-.66c.42,0,.81-.07,1.17-.22.36-.14.67-.35.93-.61.26-.26.47-.57.62-.92.15-.35.22-.74.22-1.16s-.07-.8-.22-1.16c-.15-.35-.35-.66-.62-.92s-.57-.47-.93-.61c-.36-.14-.75-.22-1.17-.22s-.81.07-1.17.22c-.36.14-.67.35-.94.61-.27.26-.47.57-.62.92-.15.35-.22.74-.22,1.16s.07.8.22,1.15c.15.35.35.66.62.92s.58.47.94.61c.36.14.75.22,1.17.22Z"/>
        <path class="cls-10" d="m138.02,55.69v-7h2.91c.74,0,1.32.15,1.75.46.42.3.63.75.63,1.33s-.2,1.02-.61,1.32c-.41.3-.94.44-1.6.44l.17-.25c.78,0,1.37.15,1.78.46s.61.76.61,1.35-.21,1.06-.64,1.39c-.42.33-1.06.5-1.9.5h-3.1Zm.73-3.83h2.14c.54,0,.96-.11,1.25-.33.29-.22.44-.54.44-.96s-.15-.75-.44-.96-.71-.33-1.25-.33h-2.14v2.58Zm0,3.24h2.37c.59,0,1.04-.11,1.35-.33s.46-.56.46-1.02-.15-.79-.46-1c-.31-.21-.76-.32-1.35-.32h-2.37v2.67Z"/>
        <path class="cls-10" d="m144.84,55.69l3.2-7h.73l3.2,7h-.78l-2.94-6.57h.3l-2.94,6.57h-.77Zm1.26-1.87l.22-.6h4.07l.22.6h-4.51Z"/>
        <path class="cls-10" d="m157.9,55.69v-2.32l.2.2h-2.29c-.56,0-1.04-.1-1.44-.29s-.7-.47-.91-.83c-.21-.36-.31-.78-.31-1.28,0-.53.11-.99.34-1.36s.55-.65.96-.84c.42-.19.9-.29,1.46-.29h2.72v7h-.73Zm-4.75,0l1.72-2.46h.76l-1.69,2.46h-.79Zm4.75-2.53v-4.04l.2.21h-2.16c-.65,0-1.16.16-1.52.47-.36.31-.53.76-.53,1.35s.17,1.01.5,1.33c.33.31.83.46,1.48.46h2.23l-.2.22Z"/>
        <path class="cls-10" d="m165.72,55.69v-6.56l.2.2h-2.66v-.64h5.65v.64h-2.65l.19-.2v6.56h-.73Z"/>
        <path class="cls-10" d="m170.57,55.69v-7h2.62c.59,0,1.1.09,1.53.29.43.19.75.46.99.82.23.36.34.79.34,1.29s-.12.92-.34,1.27c-.23.36-.56.63-.99.83s-.94.29-1.53.29h-2.21l.33-.35v2.56h-.74Zm.74-2.5l-.33-.36h2.19c.7,0,1.23-.15,1.59-.46.36-.3.54-.73.54-1.28s-.18-.99-.54-1.3-.89-.46-1.59-.46h-2.19l.33-.35v4.21Z"/>
        <path class="cls-10" d="m176.99,55.69l3.2-7h.73l3.2,7h-.78l-2.94-6.57h.3l-2.94,6.57h-.77Zm1.26-1.87l.22-.6h4.07l.22.6h-4.51Z"/>
        <path class="cls-10" d="m186.56,55.69h-.74v-7h.74v7Zm4.45-3.23h-4.53v-.65h4.53v.65Zm-.07-3.77h.73v7h-.73v-7Z"/>
        <path class="cls-10" d="m197.45,55.75c-.53,0-1.01-.09-1.46-.26-.45-.18-.83-.42-1.16-.75-.33-.32-.58-.7-.76-1.13-.18-.43-.28-.91-.28-1.42s.09-.99.28-1.42c.18-.43.44-.81.77-1.13.33-.32.72-.57,1.17-.75s.93-.26,1.46-.26.98.08,1.43.25c.45.17.82.42,1.13.76l-.47.47c-.29-.29-.6-.5-.95-.63s-.72-.2-1.12-.2-.81.07-1.17.22c-.36.14-.67.35-.94.61-.27.26-.48.57-.62.92-.15.35-.23.74-.23,1.16s.08.8.23,1.16c.15.35.36.66.62.92s.58.47.94.61c.36.14.75.22,1.17.22s.77-.07,1.12-.2c.35-.13.66-.35.95-.64l.47.47c-.31.34-.68.6-1.13.77-.45.17-.93.26-1.44.26Z"/>
        <path class="cls-10" d="m205.22,55.21c-.83,0-1.55-.12-2.14-.35-.59-.24-1.05-.58-1.37-1.04-.32-.45-.48-1-.48-1.64s.16-1.19.48-1.63c.32-.45.78-.8,1.37-1.04.59-.24,1.31-.36,2.14-.36h.18c.84,0,1.56.12,2.15.36.59.24,1.05.58,1.37,1.04.32.45.48.99.48,1.63s-.16,1.19-.47,1.64c-.32.45-.77.8-1.37,1.04-.59.24-1.3.35-2.13.35h-.21Zm.08-.58h.07c.7,0,1.3-.11,1.79-.3.5-.19.88-.47,1.14-.83.26-.36.39-.81.39-1.33s-.13-.97-.39-1.33c-.26-.36-.64-.63-1.13-.83-.49-.19-1.08-.29-1.77-.29h-.09c-.71,0-1.31.09-1.81.28s-.88.46-1.15.83-.4.81-.4,1.33.13.98.41,1.34c.27.36.66.64,1.16.83.5.19,1.1.28,1.79.28Zm-.33,1.3v-7.48h.69v7.48h-.69Z"/>
        <path class="cls-10" d="m214.51,55.75c-.53,0-1.01-.09-1.46-.26s-.84-.43-1.17-.75-.59-.7-.77-1.13-.27-.9-.27-1.42.09-.99.27-1.42.44-.81.77-1.13.72-.57,1.17-.75c.45-.18.94-.26,1.47-.26s1.01.09,1.46.26.83.42,1.17.75c.33.32.59.7.77,1.13.18.43.28.91.28,1.42s-.09.99-.28,1.42c-.18.43-.44.81-.77,1.13-.33.32-.72.57-1.17.75s-.93.26-1.46.26Zm0-.66c.42,0,.81-.07,1.17-.22.36-.14.67-.35.93-.61.26-.26.47-.57.62-.92.15-.35.22-.74.22-1.16s-.07-.8-.22-1.16c-.15-.35-.35-.66-.62-.92s-.57-.47-.93-.61c-.36-.14-.75-.22-1.17-.22s-.81.07-1.17.22c-.36.14-.67.35-.94.61-.27.26-.47.57-.62.92-.15.35-.22.74-.22,1.16s.07.8.22,1.15c.15.35.35.66.62.92s.58.47.94.61c.36.14.75.22,1.17.22Z"/>
        <path class="cls-10" d="m220.31,55.69v-7h2.62c.59,0,1.1.09,1.53.29.43.19.75.46.99.82.23.36.34.79.34,1.29s-.12.92-.34,1.27c-.23.36-.56.63-.99.83s-.94.29-1.53.29h-2.21l.33-.35v2.56h-.74Zm.74-2.5l-.33-.36h2.19c.7,0,1.23-.15,1.59-.46.36-.3.54-.73.54-1.28s-.18-.99-.54-1.3-.89-.46-1.59-.46h-2.19l.33-.35v4.21Z"/>
        <path class="cls-10" d="m227.76,55.69v-7h.61l3.2,5.46h-.32l3.17-5.46h.61v7h-.71v-5.89h.17l-2.92,5h-.35l-2.94-5h.19v5.89h-.71Z"/>
        <path class="cls-10" d="m236.72,55.69l3.2-7h.73l3.2,7h-.78l-2.94-6.57h.3l-2.94,6.57h-.77Zm1.26-1.87l.22-.6h4.07l.22.6h-4.51Z"/>
        <path class="cls-10" d="m245.55,55.69v-7h.73v6.36h4.23v-6.36h.73v7h-5.69Zm6.11,1.64v-1.84l.19.2h-1.34v-.64h1.84v2.28h-.69Z"/>
        <path class="cls-10" d="m254.18,55.69v-7h.73v5.8l4.48-5.8h.67v7h-.73v-5.79l-4.48,5.79h-.67Z"/>
        <path class="cls-10" d="m267.01,55.69v-2.32l.2.2h-2.29c-.56,0-1.04-.1-1.44-.29s-.7-.47-.91-.83c-.21-.36-.31-.78-.31-1.28,0-.53.11-.99.34-1.36s.55-.65.96-.84c.42-.19.9-.29,1.46-.29h2.72v7h-.73Zm-4.75,0l1.72-2.46h.76l-1.69,2.46h-.79Zm4.75-2.53v-4.04l.2.21h-2.16c-.65,0-1.16.16-1.52.47-.36.31-.53.76-.53,1.35s.17,1.01.5,1.33c.33.31.83.46,1.48.46h2.23l-.2.22Z"/>
        <path class="cls-10" d="m273.44,55.69v-7h5.12v.63h-4.39v2.29h2.29c.83,0,1.46.17,1.88.5.43.34.65.83.65,1.49s-.23,1.19-.7,1.55c-.46.36-1.13.54-2,.54h-2.86Zm.73-.59h2.12c.65,0,1.13-.12,1.46-.38s.5-.62.5-1.09c0-.95-.65-1.43-1.96-1.43h-2.12v2.9Z"/>
        <path class="cls-10" d="m281.06,55.69v-7h.73v5.8l4.48-5.8h.67v7h-.73v-5.79l-4.48,5.79h-.67Z"/>
        <path class="cls-10" d="m288.83,54.85l.27-.53c.31.27.65.46,1.04.59.38.13.77.2,1.15.2.39,0,.74-.05,1.07-.17s.58-.28.79-.5.3-.5.3-.81c0-.41-.16-.72-.49-.94s-.77-.33-1.34-.33h-1.5v-.6h1.46c.49,0,.88-.11,1.16-.32s.42-.5.42-.88c0-.27-.08-.5-.24-.68-.16-.19-.37-.34-.64-.44-.27-.1-.57-.16-.91-.17s-.68.03-1.04.13-.7.25-1.04.46l-.24-.61c.41-.25.84-.42,1.29-.51.45-.1.88-.13,1.3-.09s.8.13,1.13.29.61.37.8.63c.2.26.3.57.3.93,0,.33-.08.63-.26.88-.17.25-.41.45-.71.58-.3.14-.66.21-1.07.21l.04-.22c.47,0,.87.07,1.21.22.34.15.61.36.8.62.19.27.29.58.29.95,0,.34-.08.64-.25.91-.17.26-.4.48-.7.66-.3.18-.63.3-1,.38-.37.08-.75.1-1.15.06-.4-.03-.79-.12-1.18-.26s-.74-.35-1.07-.62Z"/>
        <path class="cls-10" d="m297.12,55.69h-.74v-7h.74v7Zm4.45-3.23h-4.53v-.65h4.53v.65Zm-.07-3.77h.73v7h-.73v-7Z"/>
        <path class="cls-10" d="m305.69,55.05h4.21v.64h-4.95v-7h4.8v.64h-4.06v5.72Zm-.08-3.23h3.7v.63h-3.7v-.63Z"/>
        <path class="cls-10" d="m314.96,55.75c-.53,0-1.01-.09-1.46-.26-.45-.18-.83-.42-1.16-.75-.33-.32-.58-.7-.76-1.13-.18-.43-.28-.91-.28-1.42s.09-.99.28-1.42c.18-.43.44-.81.77-1.13.33-.32.72-.57,1.17-.75s.93-.26,1.46-.26.98.08,1.43.25c.45.17.82.42,1.13.76l-.47.47c-.29-.29-.6-.5-.95-.63s-.72-.2-1.12-.2-.81.07-1.17.22c-.36.14-.67.35-.94.61-.27.26-.48.57-.62.92-.15.35-.23.74-.23,1.16s.08.8.23,1.16c.15.35.36.66.62.92s.58.47.94.61c.36.14.75.22,1.17.22s.77-.07,1.12-.2c.35-.13.66-.35.95-.64l.47.47c-.31.34-.68.6-1.13.77-.45.17-.93.26-1.44.26Z"/>
        <path class="cls-10" d="m318.39,55.69l3.2-7h.73l3.2,7h-.78l-2.94-6.57h.3l-2.94,6.57h-.77Zm1.26-1.87l.22-.6h4.07l.22.6h-4.51Z"/>
      </g>
    </g>
  </g>
</svg>
